<svg id="kity_svg_6" xmlns="http://www.w3.org/2000/svg" xmlns:xlink="http://www.w3.org/1999/xlink" version="1.1" width="2481" height="1559" style="background: rgb(251, 251, 251); visibility: visible;" viewBox="0 0 2481 1559"><defs id="kity_defs_7"><linearGradient id="kity_linearGradient_17" x1="0" y1="0" x2="0" y2="1"><stop id="kity_stop_18" offset="0" stop-color="rgb(255, 255, 255)"></stop><stop id="kity_stop_19" offset="1" stop-color="rgb(204, 204, 204)"></stop></linearGradient><marker id="kity_marker_2" orient="auto" refX="6" refY="0" viewBox="-7 -7 14 14" markerWidth="7" markerHeight="7" markerUnits="userSpaceOnUse"><path id="kity_path_3" fill="rgb(115, 161, 191)" stroke="none" d="M6,0A6,6,0,1,1,-6,0A6,6,0,1,1,6,0"></path></marker></defs><g id="kity_g_8"><g id="minder1" text-rendering="optimize-speed"><g id="minder_connect_group1"><path id="kity_path_31" fill="none" stroke="rgb(115, 161, 191)" stroke-width="1" d="M150,742.5A247.5,421,0,0,1,397.5,321.5"></path><path id="kity_path_47" fill="none" stroke="rgb(115, 161, 191)" stroke-width="1" d="M495.5,321.5C513.5,321.5,513.5,135.5,531.5,135.5"></path><path id="kity_path_49" fill="none" stroke="rgb(115, 161, 191)" stroke-width="1" d="M495.5,321.5C515.5,321.5,515.5,490.5,535.5,490.5"></path><path id="kity_path_57" fill="none" stroke="rgb(115, 161, 191)" stroke-width="1" d="M150,742.5A247.5,6,0,0,1,397.5,736.5"></path><path id="kity_path_65" fill="none" stroke="rgb(115, 161, 191)" stroke-width="1" d="M150,742.5A247.5,422,0,0,0,397.5,1164.5"></path><path id="kity_path_113" fill="none" stroke="rgb(115, 161, 191)" stroke-width="1" d="M495.5,1164.5C515.5,1164.5,515.5,800.5,535.5,800.5"></path><path id="kity_path_121" fill="none" stroke="rgb(115, 161, 191)" stroke-width="1" d="M495.5,1164.5C515.5,1164.5,515.5,852.5,535.5,852.5"></path><path id="kity_path_129" fill="none" stroke="rgb(115, 161, 191)" stroke-width="1" d="M495.5,1164.5C515.5,1164.5,515.5,1008.5,535.5,1008.5"></path><path id="kity_path_137" fill="none" stroke="rgb(115, 161, 191)" stroke-width="1" d="M955.5,1008.5C975.5,1008.5,975.5,904.5,995.5,904.5"></path><path id="kity_path_145" fill="none" stroke="rgb(115, 161, 191)" stroke-width="1" d="M495.5,1164.5C515.5,1164.5,515.5,1346.5,535.5,1346.5"></path><path id="kity_path_147" fill="none" stroke="rgb(115, 161, 191)" stroke-width="1" d="M900.5,1346.5C920.5,1346.5,920.5,1320.5,940.5,1320.5"></path><path id="kity_path_163" fill="none" stroke="rgb(115, 161, 191)" stroke-width="1" d="M955.5,1008.5C975.5,1008.5,975.5,1112.5,995.5,1112.5"></path><path id="kity_path_171" fill="none" stroke="rgb(115, 161, 191)" stroke-width="1" d="M1039.5,1112.5C1059.5,1112.5,1059.5,956.5,1079.5,956.5"></path><path id="kity_path_179" fill="none" stroke="rgb(115, 161, 191)" stroke-width="1" d="M1039.5,1112.5C1059.5,1112.5,1059.5,1008.5,1079.5,1008.5"></path><path id="kity_path_187" fill="none" stroke="rgb(115, 161, 191)" stroke-width="1" d="M1039.5,1112.5C1059.5,1112.5,1059.5,1060.5,1079.5,1060.5"></path><path id="kity_path_195" fill="none" stroke="rgb(115, 161, 191)" stroke-width="1" d="M1039.5,1112.5C1059.5,1112.5,1059.5,1112.5,1079.5,1112.5"></path><path id="kity_path_203" fill="none" stroke="rgb(115, 161, 191)" stroke-width="1" d="M1039.5,1112.5C1059.5,1112.5,1059.5,1164.5,1079.5,1164.5"></path><path id="kity_path_211" fill="none" stroke="rgb(115, 161, 191)" stroke-width="1" d="M1039.5,1112.5C1059.5,1112.5,1059.5,1216.5,1079.5,1216.5"></path><path id="kity_path_219" fill="none" stroke="rgb(115, 161, 191)" stroke-width="1" d="M1039.5,1112.5C1059.5,1112.5,1059.5,1268.5,1079.5,1268.5"></path><path id="kity_path_237" fill="none" stroke="rgb(115, 161, 191)" stroke-width="1" d="M900.5,1346.5C920.5,1346.5,920.5,1372.5,940.5,1372.5"></path><path id="kity_path_245" fill="none" stroke="rgb(115, 161, 191)" stroke-width="1" d="M495.5,1164.5C515.5,1164.5,515.5,1424.5,535.5,1424.5"></path><path id="kity_path_253" fill="none" stroke="rgb(115, 161, 191)" stroke-width="1" d="M495.5,1164.5C515.5,1164.5,515.5,1476.5,535.5,1476.5"></path><path id="kity_path_261" fill="none" stroke="rgb(115, 161, 191)" stroke-width="1" d="M495.5,1164.5C515.5,1164.5,515.5,1528.5,535.5,1528.5"></path><path id="kity_path_269" fill="none" stroke="rgb(115, 161, 191)" stroke-width="1" d="M1528.5,490.5C1548.5,490.5,1548.5,490.5,1568.5,490.5"></path><path id="kity_path_277" fill="none" stroke="rgb(115, 161, 191)" stroke-width="1" d="M1612.5,490.5C1632.5,490.5,1632.5,308.5,1652.5,308.5"></path><path id="kity_path_285" fill="none" stroke="rgb(115, 161, 191)" stroke-width="1" d="M1612.5,490.5C1632.5,490.5,1632.5,360.5,1652.5,360.5"></path><path id="kity_path_293" fill="none" stroke="rgb(115, 161, 191)" stroke-width="1" d="M1612.5,490.5C1632.5,490.5,1632.5,412.5,1652.5,412.5"></path><path id="kity_path_301" fill="none" stroke="rgb(115, 161, 191)" stroke-width="1" d="M1612.5,490.5C1632.5,490.5,1632.5,464.5,1652.5,464.5"></path><path id="kity_path_309" fill="none" stroke="rgb(115, 161, 191)" stroke-width="1" d="M1612.5,490.5C1632.5,490.5,1632.5,516.5,1652.5,516.5"></path><path id="kity_path_317" fill="none" stroke="rgb(115, 161, 191)" stroke-width="1" d="M1612.5,490.5C1632.5,490.5,1632.5,568.5,1652.5,568.5"></path><path id="kity_path_325" fill="none" stroke="rgb(115, 161, 191)" stroke-width="1" d="M1612.5,490.5C1632.5,490.5,1632.5,620.5,1652.5,620.5"></path><path id="kity_path_333" fill="none" stroke="rgb(115, 161, 191)" stroke-width="1" d="M1612.5,490.5C1632.5,490.5,1632.5,672.5,1652.5,672.5"></path><path id="kity_path_341" fill="none" stroke="rgb(115, 161, 191)" stroke-width="1" d="M1827.5,308.5C1847.5,308.5,1847.5,308.5,1867.5,308.5"></path><path id="kity_path_349" fill="none" stroke="rgb(115, 161, 191)" stroke-width="1" d="M1827.5,360.5C1847.5,360.5,1847.5,360.5,1867.5,360.5"></path><path id="kity_path_357" fill="none" stroke="rgb(115, 161, 191)" stroke-width="1" d="M1736.5,412.5C1756.5,412.5,1756.5,412.5,1776.5,412.5"></path><path id="kity_path_365" fill="none" stroke="rgb(115, 161, 191)" stroke-width="1" d="M1743.5,464.5C1763.5,464.5,1763.5,464.5,1783.5,464.5"></path><path id="kity_path_381" fill="none" stroke="rgb(115, 161, 191)" stroke-width="1" d="M1767.5,516.5C1787.5,516.5,1787.5,516.5,1807.5,516.5"></path><path id="kity_path_389" fill="none" stroke="rgb(115, 161, 191)" stroke-width="1" d="M1696.5,568.5C1716.5,568.5,1716.5,568.5,1736.5,568.5"></path><path id="kity_path_397" fill="none" stroke="rgb(115, 161, 191)" stroke-width="1" d="M1720.5,620.5C1740.5,620.5,1740.5,620.5,1760.5,620.5"></path><path id="kity_path_405" fill="none" stroke="rgb(115, 161, 191)" stroke-width="1" d="M1768.5,672.5C1788.5,672.5,1788.5,672.5,1808.5,672.5"></path><path id="kity_path_413" fill="none" stroke="rgb(115, 161, 191)" stroke-width="1" d="M1609.5,135.5C1629.5,135.5,1629.5,135.5,1649.5,135.5"></path><path id="kity_path_421" fill="none" stroke="rgb(115, 161, 191)" stroke-width="1" d="M1693.5,135.5C1713.5,135.5,1713.5,187.5,1733.5,187.5"></path><path id="kity_path_461" fill="none" stroke="rgb(115, 161, 191)" stroke-width="1" d="M1693.5,135.5C1713.5,135.5,1713.5,31.5,1733.5,31.5"></path><path id="kity_path_477" fill="none" stroke="rgb(115, 161, 191)" stroke-width="1" d="M1693.5,135.5C1713.5,135.5,1713.5,83.5,1733.5,83.5"></path><path id="kity_path_485" fill="none" stroke="rgb(115, 161, 191)" stroke-width="1" d="M1693.5,135.5C1713.5,135.5,1713.5,135.5,1733.5,135.5"></path><path id="kity_path_493" fill="none" stroke="rgb(115, 161, 191)" stroke-width="1" d="M1693.5,135.5C1713.5,135.5,1713.5,239.5,1733.5,239.5"></path></g><g id="minder_node1"><path id="node_outline1" fill="rgb(115, 161, 191)" stroke="rgb(115, 161, 191)" d="M25.5,722.5h249a5,5,0,0,1,5,5v30a5,5,0,0,1,-5,5h-249a5,5,0,0,1,-5,-5v-30a5,5,0,0,1,5,-5z" stroke-width="3"></path><g id="node_text1" fill="white"><text id="kity_text_22" text-rendering="inherit" font-size="16" dy=".8em" y="734.5" x="44.5">关于AWS解决方案架构师考试</text></g></g><g id="kity_g_14" display="none"><path id="kity_path_15" fill="rgba(0, 92, 153, 0.5)" stroke="none" d="M1701.5,66.5h256v15h-256z"></path><path id="kity_path_16" fill="none" stroke="rgb(0, 76, 128)" d="M1701.5,66.5L1957.5,66.5" stroke-width="1"></path></g><g id="minder_node2" opacity="1"><g id="node_expander1" style="cursor: pointer;"><path id="kity_path_36" fill="white" stroke="gray" d="M398.5,321.5A6,6,0,1,1,386.5,321.5A6,6,0,1,1,398.5,321.5"></path><path id="kity_path_37" fill="none" stroke="gray" d="M388,321.5L397,321.5"></path></g><path id="node_outline2" fill="rgb(238, 243, 246)" stroke="rgb(115, 161, 191)" d="M402.5,308.5h90a3,3,0,0,1,3,3v20a3,3,0,0,1,-3,3h-90a3,3,0,0,1,-3,-3v-20a3,3,0,0,1,3,-3z" stroke-width="1"></path><g id="node_text2" fill="black"><text id="kity_text_33" text-rendering="inherit" font-size="14" dy=".8em" y="314.5" x="419.5">考试指南</text></g></g><g id="minder_node3" opacity="1"><g id="node_expander2" style="cursor: pointer;"><path id="kity_path_44" fill="white" stroke="gray" d="M531.5,135.5A6,6,0,1,1,519.5,135.5A6,6,0,1,1,531.5,135.5"></path><path id="kity_path_45" fill="none" stroke="gray" d="M521,135.5L530,135.5"></path></g><path id="node_outline3" fill="none" stroke="none" d="M536.5,124.5h1068a5,5,0,0,1,5,5v12a5,5,0,0,1,-5,5h-1068a5,5,0,0,1,-5,-5v-12a5,5,0,0,1,5,-5z" stroke-width="3"></path><g id="node_text3" fill="black"><text id="kity_text_41" text-rendering="inherit" font-size="12" dy=".8em" y="129.5" x="541.5">2019年2月4日起：https://d1.awsstatic-china.com/training-and-certification/docs-sa-pro/AWS%20Certified%20Solutions%20Architect-Professional_Exam%20Guide_v.1.1_FINAL%20(2).pdf</text></g></g><g id="minder_node4"><g id="node_expander3" style="cursor: pointer;"><path id="kity_path_54" fill="white" stroke="gray" d="M535.5,490.5A6,6,0,1,1,523.5,490.5A6,6,0,1,1,535.5,490.5"></path><path id="kity_path_55" fill="none" stroke="gray" d="M525,490.5L534,490.5"></path></g><path id="node_outline4" fill="none" stroke="none" d="M540.5,479.5h983a5,5,0,0,1,5,5v12a5,5,0,0,1,-5,5h-983a5,5,0,0,1,-5,-5v-12a5,5,0,0,1,5,-5z" stroke-width="3"></path><g id="node_text4" fill="black"><text id="kity_text_51" text-rendering="inherit" font-size="12" dy=".8em" y="484.5" x="545.5">2019年2月3日前：https://d1.awsstatic-china.com/Train%20&amp;%20Cert/gcr/AWS%20Certified%20Solutions%20Architect%20-%20Professional%20blueprint%20000%20CHS.pdf</text></g></g><g id="minder_node5"><g id="node_expander4" style="cursor: pointer;" display="none"><path id="kity_path_62" fill="white" stroke="gray" d="M398.5,736.5A6,6,0,1,1,386.5,736.5A6,6,0,1,1,398.5,736.5"></path><path id="kity_path_63" fill="none" stroke="gray"></path></g><path id="node_outline5" fill="rgb(238, 243, 246)" stroke="rgb(115, 161, 191)" d="M402.5,723.5h770a3,3,0,0,1,3,3v20a3,3,0,0,1,-3,3h-770a3,3,0,0,1,-3,-3v-20a3,3,0,0,1,3,-3z" stroke-width="1"></path><g id="node_text5" fill="black"><text id="kity_text_59" text-rendering="inherit" font-size="14" dy=".8em" y="729.5" x="419.5">认证官网：https://amazonaws-china.com/cn/certification/certified-solutions-architect-professional/?nc1=h_ls</text></g></g><g id="minder_node6"><g id="node_expander5" style="cursor: pointer;"><path id="kity_path_70" fill="white" stroke="gray" d="M398.5,1164.5A6,6,0,1,1,386.5,1164.5A6,6,0,1,1,398.5,1164.5"></path><path id="kity_path_71" fill="none" stroke="gray" d="M388,1164.5L397,1164.5"></path></g><path id="node_outline6" fill="rgb(238, 243, 246)" stroke="rgb(115, 161, 191)" d="M402.5,1151.5h90a3,3,0,0,1,3,3v20a3,3,0,0,1,-3,3h-90a3,3,0,0,1,-3,-3v-20a3,3,0,0,1,3,-3z" stroke-width="1"></path><g id="node_text6" fill="black"><text id="kity_text_67" text-rendering="inherit" font-size="14" dy=".8em" y="1157.5" x="419.5">准备路径</text></g></g><g id="minder_node12" opacity="1"><g id="node_expander11" style="cursor: pointer;" display="none"><path id="kity_path_118" fill="white" stroke="gray" d="M535.5,800.5A6,6,0,1,1,523.5,800.5A6,6,0,1,1,535.5,800.5"></path><path id="kity_path_119" fill="none" stroke="gray"></path></g><path id="node_outline12" fill="none" stroke="none" d="M540.5,789.5h675a5,5,0,0,1,5,5v12a5,5,0,0,1,-5,5h-675a5,5,0,0,1,-5,-5v-12a5,5,0,0,1,5,-5z" stroke-width="3"></path><g id="node_text12" fill="black"><text id="kity_text_115" text-rendering="inherit" font-size="12" dy=".8em" y="794.5" x="545.5">1. 参加 AWS 培训课程（3天）：https://amazonaws-china.com/training/course-descriptions/advanced-architecting/</text></g></g><g id="minder_node13" opacity="1"><g id="node_expander12" style="cursor: pointer;" display="none"><path id="kity_path_126" fill="white" stroke="gray" d="M535.5,852.5A6,6,0,1,1,523.5,852.5A6,6,0,1,1,535.5,852.5"></path><path id="kity_path_127" fill="none" stroke="gray"></path></g><path id="node_outline13" fill="none" stroke="none" d="M540.5,841.5h887a5,5,0,0,1,5,5v12a5,5,0,0,1,-5,5h-887a5,5,0,0,1,-5,-5v-12a5,5,0,0,1,5,-5z" stroke-width="3"></path><g id="node_text13" fill="black"><text id="kity_text_123" text-rendering="inherit" font-size="12" dy=".8em" y="846.5" x="545.5">2. 查看考试指南和样题：https://d0.awsstatic-china.com/training-and-certification/docs/AWS_certified_solutions_architect_professional_examsample.pdf</text></g></g><g id="minder_node14"><g id="node_expander13" style="cursor: pointer;"><path id="kity_path_134" fill="white" stroke="gray" d="M535.5,1008.5A6,6,0,1,1,523.5,1008.5A6,6,0,1,1,535.5,1008.5"></path><path id="kity_path_135" fill="none" stroke="gray" d="M525,1008.5L534,1008.5"></path></g><path id="node_outline14" fill="none" stroke="none" d="M540.5,997.5h410a5,5,0,0,1,5,5v12a5,5,0,0,1,-5,5h-410a5,5,0,0,1,-5,-5v-12a5,5,0,0,1,5,-5z" stroke-width="3"></path><g id="node_text14" fill="black"><text id="kity_text_131" text-rendering="inherit" font-size="12" dy=".8em" y="1002.5" x="545.5">3. 研究 AWS 白皮书：https://amazonaws-china.com/cn/whitepapers/</text></g></g><g id="minder_node15"><g id="node_expander14" style="cursor: pointer;" display="none"><path id="kity_path_142" fill="white" stroke="gray" d="M995.5,904.5A6,6,0,1,1,983.5,904.5A6,6,0,1,1,995.5,904.5"></path><path id="kity_path_143" fill="none" stroke="gray"></path></g><path id="node_outline15" fill="none" stroke="none" d="M1000.5,893.5h501a5,5,0,0,1,5,5v12a5,5,0,0,1,-5,5h-501a5,5,0,0,1,-5,-5v-12a5,5,0,0,1,5,-5z" stroke-width="3"></path><g id="node_text15" fill="black"><text id="kity_text_139" text-rendering="inherit" font-size="12" dy=".8em" y="898.5" x="1005.5">重点：通过加密保护静态数据、AWS 云中的 Web 应用程序托管、将 AWS 资源迁移到新区域</text></g></g><g id="minder_node16"><g id="node_expander15" style="cursor: pointer;"><path id="kity_path_152" fill="white" stroke="gray" d="M535.5,1346.5A6,6,0,1,1,523.5,1346.5A6,6,0,1,1,535.5,1346.5"></path><path id="kity_path_153" fill="none" stroke="gray" d="M525,1346.5L534,1346.5"></path></g><path id="node_outline16" fill="none" stroke="none" d="M540.5,1335.5h355a5,5,0,0,1,5,5v12a5,5,0,0,1,-5,5h-355a5,5,0,0,1,-5,-5v-12a5,5,0,0,1,5,-5z" stroke-width="3"></path><g id="node_text16" fill="black"><text id="kity_text_149" text-rendering="inherit" font-size="12" dy=".8em" y="1340.5" x="545.5">4. 研究 AWS 常见问题：https://amazonaws-china.com/faqs/</text></g></g><g id="minder_node17"><g id="node_expander16" style="cursor: pointer;" display="none"><path id="kity_path_158" fill="white" stroke="gray" d="M940.5,1320.5A6,6,0,1,1,928.5,1320.5A6,6,0,1,1,940.5,1320.5"></path><path id="kity_path_159" fill="none" stroke="gray" d="M930,1320.5L939,1320.5"></path></g><path id="node_outline17" fill="none" stroke="none" d="M945.5,1309.5h397a5,5,0,0,1,5,5v12a5,5,0,0,1,-5,5h-397a5,5,0,0,1,-5,-5v-12a5,5,0,0,1,5,-5z" stroke-width="3"></path><g id="node_text17" fill="black"><text id="kity_text_155" text-rendering="inherit" font-size="12" dy=".8em" y="1314.5" x="950.5">重点：Auto Scaling、Elastic Load Balancing、AWS Elastic Beanstalk</text></g></g><g id="minder_node18"><g id="node_expander17" style="cursor: pointer;"><path id="kity_path_168" fill="white" stroke="gray" d="M995.5,1112.5A6,6,0,1,1,983.5,1112.5A6,6,0,1,1,995.5,1112.5"></path><path id="kity_path_169" fill="none" stroke="gray" d="M985,1112.5L994,1112.5"></path></g><path id="node_outline18" fill="none" stroke="none" d="M1000.5,1101.5h34a5,5,0,0,1,5,5v12a5,5,0,0,1,-5,5h-34a5,5,0,0,1,-5,-5v-12a5,5,0,0,1,5,-5z" stroke-width="3"></path><g id="node_text18" fill="black"><text id="kity_text_165" text-rendering="inherit" font-size="12" dy=".8em" y="1106.5" x="1005.5">分类</text></g></g><g id="minder_node19"><g id="node_expander18" style="cursor: pointer;" display="none"><path id="kity_path_176" fill="white" stroke="gray" d="M1079.5,956.5A6,6,0,1,1,1067.5,956.5A6,6,0,1,1,1079.5,956.5"></path><path id="kity_path_177" fill="none" stroke="gray"></path></g><path id="node_outline19" fill="none" stroke="none" d="M1084.5,945.5h60a5,5,0,0,1,5,5v12a5,5,0,0,1,-5,5h-60a5,5,0,0,1,-5,-5v-12a5,5,0,0,1,5,-5z" stroke-width="3"></path><g id="node_text19" fill="black"><text id="kity_text_173" text-rendering="inherit" font-size="12" dy=".8em" y="950.5" x="1089.5">AWS简介</text></g></g><g id="minder_node20"><g id="node_expander19" style="cursor: pointer;" display="none"><path id="kity_path_184" fill="white" stroke="gray" d="M1079.5,1008.5A6,6,0,1,1,1067.5,1008.5A6,6,0,1,1,1079.5,1008.5"></path><path id="kity_path_185" fill="none" stroke="gray"></path></g><path id="node_outline20" fill="none" stroke="none" d="M1084.5,997.5h82a5,5,0,0,1,5,5v12a5,5,0,0,1,-5,5h-82a5,5,0,0,1,-5,-5v-12a5,5,0,0,1,5,-5z" stroke-width="3"></path><g id="node_text20" fill="black"><text id="kity_text_181" text-rendering="inherit" font-size="12" dy=".8em" y="1002.5" x="1089.5">云计算经济学</text></g></g><g id="minder_node21"><g id="node_expander20" style="cursor: pointer;" display="none"><path id="kity_path_192" fill="white" stroke="gray" d="M1079.5,1060.5A6,6,0,1,1,1067.5,1060.5A6,6,0,1,1,1079.5,1060.5"></path><path id="kity_path_193" fill="none" stroke="gray"></path></g><path id="node_outline21" fill="none" stroke="none" d="M1084.5,1049.5h94a5,5,0,0,1,5,5v12a5,5,0,0,1,-5,5h-94a5,5,0,0,1,-5,-5v-12a5,5,0,0,1,5,-5z" stroke-width="3"></path><g id="node_text21" fill="black"><text id="kity_text_189" text-rendering="inherit" font-size="12" dy=".8em" y="1054.5" x="1089.5">安全性与合规性</text></g></g><g id="minder_node22"><g id="node_expander21" style="cursor: pointer;" display="none"><path id="kity_path_200" fill="white" stroke="gray" d="M1079.5,1112.5A6,6,0,1,1,1067.5,1112.5A6,6,0,1,1,1079.5,1112.5"></path><path id="kity_path_201" fill="none" stroke="gray"></path></g><path id="node_outline22" fill="none" stroke="none" d="M1084.5,1101.5h70a5,5,0,0,1,5,5v12a5,5,0,0,1,-5,5h-70a5,5,0,0,1,-5,-5v-12a5,5,0,0,1,5,-5z" stroke-width="3"></path><g id="node_text22" fill="black"><text id="kity_text_197" text-rendering="inherit" font-size="12" dy=".8em" y="1106.5" x="1089.5">框架和方法</text></g></g><g id="minder_node23"><g id="node_expander22" style="cursor: pointer;" display="none"><path id="kity_path_208" fill="white" stroke="gray" d="M1079.5,1164.5A6,6,0,1,1,1067.5,1164.5A6,6,0,1,1,1079.5,1164.5"></path><path id="kity_path_209" fill="none" stroke="gray"></path></g><path id="node_outline23" fill="none" stroke="none" d="M1084.5,1153.5h106a5,5,0,0,1,5,5v12a5,5,0,0,1,-5,5h-106a5,5,0,0,1,-5,-5v-12a5,5,0,0,1,5,-5z" stroke-width="3"></path><g id="node_text23" fill="black"><text id="kity_text_205" text-rendering="inherit" font-size="12" dy=".8em" y="1158.5" x="1089.5">应用程序解决方案</text></g></g><g id="minder_node24"><g id="node_expander23" style="cursor: pointer;" display="none"><path id="kity_path_216" fill="white" stroke="gray" d="M1079.5,1216.5A6,6,0,1,1,1067.5,1216.5A6,6,0,1,1,1079.5,1216.5"></path><path id="kity_path_217" fill="none" stroke="gray"></path></g><path id="node_outline24" fill="none" stroke="none" d="M1084.5,1205.5h82a5,5,0,0,1,5,5v12a5,5,0,0,1,-5,5h-82a5,5,0,0,1,-5,-5v-12a5,5,0,0,1,5,-5z" stroke-width="3"></path><g id="node_text24" fill="black"><text id="kity_text_213" text-rendering="inherit" font-size="12" dy=".8em" y="1210.5" x="1089.5">行业解决方案</text></g></g><g id="minder_node25"><g id="node_expander24" style="cursor: pointer;" display="none"><path id="kity_path_224" fill="white" stroke="gray" d="M1079.5,1268.5A6,6,0,1,1,1067.5,1268.5A6,6,0,1,1,1079.5,1268.5"></path><path id="kity_path_225" fill="none" stroke="gray"></path></g><path id="node_outline25" fill="none" stroke="none" d="M1084.5,1257.5h34a5,5,0,0,1,5,5v12a5,5,0,0,1,-5,5h-34a5,5,0,0,1,-5,-5v-12a5,5,0,0,1,5,-5z" stroke-width="3"></path><g id="node_text25" fill="black"><text id="kity_text_221" text-rendering="inherit" font-size="12" dy=".8em" y="1262.5" x="1089.5">产品</text></g></g><g id="minder_node27"><g id="node_expander26" style="cursor: pointer;" display="none"><path id="kity_path_242" fill="white" stroke="gray" d="M940.5,1372.5A6,6,0,1,1,928.5,1372.5A6,6,0,1,1,940.5,1372.5"></path><path id="kity_path_243" fill="none" stroke="gray"></path></g><path id="node_outline27" fill="none" stroke="none" d="M945.5,1361.5h1407a5,5,0,0,1,5,5v12a5,5,0,0,1,-5,5h-1407a5,5,0,0,1,-5,-5v-12a5,5,0,0,1,5,-5z" stroke-width="3"></path><g id="node_text27" fill="black"><text id="kity_text_239" text-rendering="inherit" font-size="12" dy=".8em" y="1366.5" x="950.5">分类：计算、存储、数据库、迁移、网络和内容分发、开发人员工具、管理工具、媒体服务、人工智能、机器学习、分析、安全性/身份与合规性、移动服务、应用程序集成、客户互动、企业生产力、桌面和应用程序流式处理、物联网、游戏开发、付款与账单、支持</text></g></g><g id="minder_node28"><g id="node_expander27" style="cursor: pointer;" display="none"><path id="kity_path_250" fill="white" stroke="gray" d="M535.5,1424.5A6,6,0,1,1,523.5,1424.5A6,6,0,1,1,535.5,1424.5"></path><path id="kity_path_251" fill="none" stroke="gray"></path></g><path id="node_outline28" fill="none" stroke="none" d="M540.5,1413.5h540a5,5,0,0,1,5,5v12a5,5,0,0,1,-5,5h-540a5,5,0,0,1,-5,-5v-12a5,5,0,0,1,5,-5z" stroke-width="3"></path><g id="node_text28" fill="black"><text id="kity_text_247" text-rendering="inherit" font-size="12" dy=".8em" y="1418.5" x="545.5">5. 参加备考培训：https://www.aws.training/training/schedule?courseId=10022?src=cert-prep</text></g></g><g id="minder_node29"><g id="node_expander28" style="cursor: pointer;" display="none"><path id="kity_path_258" fill="white" stroke="gray" d="M535.5,1476.5A6,6,0,1,1,523.5,1476.5A6,6,0,1,1,535.5,1476.5"></path><path id="kity_path_259" fill="none" stroke="gray"></path></g><path id="node_outline29" fill="none" stroke="none" d="M540.5,1465.5h95a5,5,0,0,1,5,5v12a5,5,0,0,1,-5,5h-95a5,5,0,0,1,-5,-5v-12a5,5,0,0,1,5,-5z" stroke-width="3"></path><g id="node_text29" fill="black"><text id="kity_text_255" text-rendering="inherit" font-size="12" dy=".8em" y="1470.5" x="545.5">6. 参加模拟考试</text></g></g><g id="minder_node30"><g id="node_expander29" style="cursor: pointer;" display="none"><path id="kity_path_266" fill="white" stroke="gray" d="M535.5,1528.5A6,6,0,1,1,523.5,1528.5A6,6,0,1,1,535.5,1528.5"></path><path id="kity_path_267" fill="none" stroke="gray"></path></g><path id="node_outline30" fill="none" stroke="none" d="M540.5,1517.5h47a5,5,0,0,1,5,5v12a5,5,0,0,1,-5,5h-47a5,5,0,0,1,-5,-5v-12a5,5,0,0,1,5,-5z" stroke-width="3"></path><g id="node_text30" fill="black"><text id="kity_text_263" text-rendering="inherit" font-size="12" dy=".8em" y="1522.5" x="545.5">7. 报考</text></g></g><g id="minder_node31"><g id="node_expander30" style="cursor: pointer;"><path id="kity_path_274" fill="white" stroke="gray" d="M1568.5,490.5A6,6,0,1,1,1556.5,490.5A6,6,0,1,1,1568.5,490.5"></path><path id="kity_path_275" fill="none" stroke="gray" d="M1558,490.5L1567,490.5"></path></g><path id="node_outline31" fill="none" stroke="none" d="M1573.5,479.5h34a5,5,0,0,1,5,5v12a5,5,0,0,1,-5,5h-34a5,5,0,0,1,-5,-5v-12a5,5,0,0,1,5,-5z" stroke-width="3"></path><g id="node_text31" fill="black"><text id="kity_text_271" text-rendering="inherit" font-size="12" dy=".8em" y="484.5" x="1578.5">领域</text></g></g><g id="minder_node32"><g id="node_expander31" style="cursor: pointer;"><path id="kity_path_282" fill="white" stroke="gray" d="M1652.5,308.5A6,6,0,1,1,1640.5,308.5A6,6,0,1,1,1652.5,308.5"></path><path id="kity_path_283" fill="none" stroke="gray" d="M1642,308.5L1651,308.5"></path></g><path id="node_outline32" fill="none" stroke="none" d="M1657.5,297.5h165a5,5,0,0,1,5,5v12a5,5,0,0,1,-5,5h-165a5,5,0,0,1,-5,-5v-12a5,5,0,0,1,5,-5z" stroke-width="3"></path><g id="node_text32" fill="black"><text id="kity_text_279" text-rendering="inherit" font-size="12" dy=".8em" y="302.5" x="1662.5">高可靠与业务连续性（15%）</text></g></g><g id="minder_node33"><g id="node_expander32" style="cursor: pointer;"><path id="kity_path_290" fill="white" stroke="gray" d="M1652.5,360.5A6,6,0,1,1,1640.5,360.5A6,6,0,1,1,1652.5,360.5"></path><path id="kity_path_291" fill="none" stroke="gray" d="M1642,360.5L1651,360.5"></path></g><path id="node_outline33" fill="none" stroke="none" d="M1657.5,349.5h165a5,5,0,0,1,5,5v12a5,5,0,0,1,-5,5h-165a5,5,0,0,1,-5,-5v-12a5,5,0,0,1,5,-5z" stroke-width="3"></path><g id="node_text33" fill="black"><text id="kity_text_287" text-rendering="inherit" font-size="12" dy=".8em" y="354.5" x="1662.5">弹性伸缩、可扩展性（15%）</text></g></g><g id="minder_node34"><g id="node_expander33" style="cursor: pointer;"><path id="kity_path_298" fill="white" stroke="gray" d="M1652.5,412.5A6,6,0,1,1,1640.5,412.5A6,6,0,1,1,1652.5,412.5"></path><path id="kity_path_299" fill="none" stroke="gray" d="M1642,412.5L1651,412.5"></path></g><path id="node_outline34" fill="none" stroke="none" d="M1657.5,401.5h74a5,5,0,0,1,5,5v12a5,5,0,0,1,-5,5h-74a5,5,0,0,1,-5,-5v-12a5,5,0,0,1,5,-5z" stroke-width="3"></path><g id="node_text34" fill="black"><text id="kity_text_295" text-rendering="inherit" font-size="12" dy=".8em" y="406.5" x="1662.5">计费（6%）</text></g></g><g id="minder_node35"><g id="node_expander34" style="cursor: pointer;"><path id="kity_path_306" fill="white" stroke="gray" d="M1652.5,464.5A6,6,0,1,1,1640.5,464.5A6,6,0,1,1,1652.5,464.5"></path><path id="kity_path_307" fill="none" stroke="gray" d="M1642,464.5L1651,464.5"></path></g><path id="node_outline35" fill="none" stroke="none" d="M1657.5,453.5h81a5,5,0,0,1,5,5v12a5,5,0,0,1,-5,5h-81a5,5,0,0,1,-5,-5v-12a5,5,0,0,1,5,-5z" stroke-width="3"></path><g id="node_text35" fill="black"><text id="kity_text_303" text-rendering="inherit" font-size="12" dy=".8em" y="458.5" x="1662.5">安全（19%）</text></g></g><g id="minder_node36"><g id="node_expander35" style="cursor: pointer;"><path id="kity_path_314" fill="white" stroke="gray" d="M1652.5,516.5A6,6,0,1,1,1640.5,516.5A6,6,0,1,1,1652.5,516.5"></path><path id="kity_path_315" fill="none" stroke="gray" d="M1642,516.5L1651,516.5"></path></g><path id="node_outline36" fill="none" stroke="none" d="M1657.5,505.5h105a5,5,0,0,1,5,5v12a5,5,0,0,1,-5,5h-105a5,5,0,0,1,-5,-5v-12a5,5,0,0,1,5,-5z" stroke-width="3"></path><g id="node_text36" fill="black"><text id="kity_text_311" text-rendering="inherit" font-size="12" dy=".8em" y="510.5" x="1662.5">数据存储（15%）</text></g></g><g id="minder_node37"><g id="node_expander36" style="cursor: pointer;"><path id="kity_path_322" fill="white" stroke="gray" d="M1652.5,568.5A6,6,0,1,1,1640.5,568.5A6,6,0,1,1,1652.5,568.5"></path><path id="kity_path_323" fill="none" stroke="gray" d="M1642,568.5L1651,568.5"></path></g><path id="node_outline37" fill="none" stroke="none" d="M1657.5,557.5h34a5,5,0,0,1,5,5v12a5,5,0,0,1,-5,5h-34a5,5,0,0,1,-5,-5v-12a5,5,0,0,1,5,-5z" stroke-width="3"></path><g id="node_text37" fill="black"><text id="kity_text_319" text-rendering="inherit" font-size="12" dy=".8em" y="562.5" x="1662.5">网络</text></g></g><g id="minder_node38"><g id="node_expander37" style="cursor: pointer;"><path id="kity_path_330" fill="white" stroke="gray" d="M1652.5,620.5A6,6,0,1,1,1640.5,620.5A6,6,0,1,1,1652.5,620.5"></path><path id="kity_path_331" fill="none" stroke="gray" d="M1642,620.5L1651,620.5"></path></g><path id="node_outline38" fill="none" stroke="none" d="M1657.5,609.5h58a5,5,0,0,1,5,5v12a5,5,0,0,1,-5,5h-58a5,5,0,0,1,-5,-5v-12a5,5,0,0,1,5,-5z" stroke-width="3"></path><g id="node_text38" fill="black"><text id="kity_text_327" text-rendering="inherit" font-size="12" dy=".8em" y="614.5" x="1662.5">部署管理</text></g></g><g id="minder_node39"><g id="node_expander38" style="cursor: pointer;"><path id="kity_path_338" fill="white" stroke="gray" d="M1652.5,672.5A6,6,0,1,1,1640.5,672.5A6,6,0,1,1,1652.5,672.5"></path><path id="kity_path_339" fill="none" stroke="gray" d="M1642,672.5L1651,672.5"></path></g><path id="node_outline39" fill="none" stroke="none" d="M1657.5,661.5h106a5,5,0,0,1,5,5v12a5,5,0,0,1,-5,5h-106a5,5,0,0,1,-5,-5v-12a5,5,0,0,1,5,-5z" stroke-width="3"></path><g id="node_text39" fill="black"><text id="kity_text_335" text-rendering="inherit" font-size="12" dy=".8em" y="666.5" x="1662.5">云迁移和混合架构</text></g></g><g id="minder_node40"><g id="node_expander39" style="cursor: pointer;" display="none"><path id="kity_path_346" fill="white" stroke="gray" d="M1867.5,308.5A6,6,0,1,1,1855.5,308.5A6,6,0,1,1,1867.5,308.5"></path><path id="kity_path_347" fill="none" stroke="gray"></path></g><path id="node_outline40" fill="none" stroke="none" d="M1872.5,297.5h571a5,5,0,0,1,5,5v12a5,5,0,0,1,-5,5h-571a5,5,0,0,1,-5,-5v-12a5,5,0,0,1,5,-5z" stroke-width="3"></path><g id="node_text40" fill="black"><text id="kity_text_343" text-rendering="inherit" font-size="12" dy=".8em" y="302.5" x="1877.5">SLA（可靠性目标）、数据备份与恢复策略（数据可靠性）、多AZ/Region部署（系统可靠性）、自愈能力</text></g></g><g id="minder_node41"><g id="node_expander40" style="cursor: pointer;" display="none"><path id="kity_path_354" fill="white" stroke="gray" d="M1867.5,360.5A6,6,0,1,1,1855.5,360.5A6,6,0,1,1,1867.5,360.5"></path><path id="kity_path_355" fill="none" stroke="gray"></path></g><path id="node_outline41" fill="none" stroke="none" d="M1872.5,349.5h374a5,5,0,0,1,5,5v12a5,5,0,0,1,-5,5h-374a5,5,0,0,1,-5,-5v-12a5,5,0,0,1,5,-5z" stroke-width="3"></path><g id="node_text41" fill="black"><text id="kity_text_351" text-rendering="inherit" font-size="12" dy=".8em" y="354.5" x="1877.5">送耦合、前端/中间层/数据层可动态伸缩的架构、权衡水平/垂直伸缩</text></g></g><g id="minder_node42"><g id="node_expander41" style="cursor: pointer;" display="none"><path id="kity_path_362" fill="white" stroke="gray" d="M1776.5,412.5A6,6,0,1,1,1764.5,412.5A6,6,0,1,1,1776.5,412.5"></path><path id="kity_path_363" fill="none" stroke="gray"></path></g><path id="node_outline42" fill="none" stroke="none" d="M1781.5,401.5h600a5,5,0,0,1,5,5v12a5,5,0,0,1,-5,5h-600a5,5,0,0,1,-5,-5v-12a5,5,0,0,1,5,-5z" stroke-width="3"></path><g id="node_text42" fill="black"><text id="kity_text_359" text-rendering="inherit" font-size="12" dy=".8em" y="406.5" x="1786.5">比较不同架构的成本的影响、设计合适的架构，最小化基础设施价格、根据需要申请恰当的AWS账号和计费策略</text></g></g><g id="minder_node43"><g id="node_expander42" style="cursor: pointer;" display="none"><path id="kity_path_370" fill="white" stroke="gray" d="M1783.5,464.5A6,6,0,1,1,1771.5,464.5A6,6,0,1,1,1783.5,464.5"></path><path id="kity_path_371" fill="none" stroke="gray"></path></g><path id="node_outline43" fill="none" stroke="none" d="M1788.5,453.5h668a5,5,0,0,1,5,5v12a5,5,0,0,1,-5,5h-668a5,5,0,0,1,-5,-5v-12a5,5,0,0,1,5,-5z" stroke-width="3"></path><g id="node_text43" fill="black"><text id="kity_text_367" text-rendering="inherit" font-size="12" dy=".8em" y="458.5" x="1793.5">ISMS与合规控制、AWS共享责任模型、认证与鉴权、静态数据保护（加密控制、密钥管理）、动态数据保护（传输中，SSL）</text></g></g><g id="minder_node45"><g id="node_expander44" style="cursor: pointer;" display="none"><path id="kity_path_386" fill="white" stroke="gray" d="M1807.5,516.5A6,6,0,1,1,1795.5,516.5A6,6,0,1,1,1807.5,516.5"></path><path id="kity_path_387" fill="none" stroke="gray"></path></g><path id="node_outline45" fill="none" stroke="none" d="M1812.5,505.5h555a5,5,0,0,1,5,5v12a5,5,0,0,1,-5,5h-555a5,5,0,0,1,-5,-5v-12a5,5,0,0,1,5,-5z" stroke-width="3"></path><g id="node_text45" fill="black"><text id="kity_text_383" text-rendering="inherit" font-size="12" dy=".8em" y="510.5" x="1817.5">合理进行存储/数据库配置（考虑费用、性能）、数据库存储架构、同步复制与异步复制（数据一致性）</text></g></g><g id="minder_node46"><g id="node_expander45" style="cursor: pointer;" display="none"><path id="kity_path_394" fill="white" stroke="gray" d="M1736.5,568.5A6,6,0,1,1,1724.5,568.5A6,6,0,1,1,1736.5,568.5"></path><path id="kity_path_395" fill="none" stroke="gray"></path></g><path id="node_outline46" fill="none" stroke="none" d="M1741.5,557.5h502a5,5,0,0,1,5,5v12a5,5,0,0,1,-5,5h-502a5,5,0,0,1,-5,-5v-12a5,5,0,0,1,5,-5z" stroke-width="3"></path><g id="node_text46" fill="black"><text id="kity_text_391" text-rendering="inherit" font-size="12" dy=".8em" y="562.5" x="1746.5">VPC基础、网络特性（vpc peering、assumerole）、连接特性（Direct Connect，BGP）</text></g></g><g id="minder_node47"><g id="node_expander46" style="cursor: pointer;" display="none"><path id="kity_path_402" fill="white" stroke="gray" d="M1760.5,620.5A6,6,0,1,1,1748.5,620.5A6,6,0,1,1,1760.5,620.5"></path><path id="kity_path_403" fill="none" stroke="gray"></path></g><path id="node_outline47" fill="none" stroke="none" d="M1765.5,609.5h455a5,5,0,0,1,5,5v12a5,5,0,0,1,-5,5h-455a5,5,0,0,1,-5,-5v-12a5,5,0,0,1,5,-5z" stroke-width="3"></path><g id="node_text47" fill="black"><text id="kity_text_399" text-rendering="inherit" font-size="12" dy=".8em" y="614.5" x="1770.5">AWS上的应用程序生命周期管理、基于不同场景/测试开发/生产需要设计合适的架构</text></g></g><g id="minder_node48"><g id="node_expander47" style="cursor: pointer;" display="none"><path id="kity_path_410" fill="white" stroke="gray" d="M1808.5,672.5A6,6,0,1,1,1796.5,672.5A6,6,0,1,1,1808.5,672.5"></path><path id="kity_path_411" fill="none" stroke="gray"></path></g><path id="node_outline48" fill="none" stroke="none" d="M1813.5,661.5h214a5,5,0,0,1,5,5v12a5,5,0,0,1,-5,5h-214a5,5,0,0,1,-5,-5v-12a5,5,0,0,1,5,-5z" stroke-width="3"></path><g id="node_text48" fill="black"><text id="kity_text_407" text-rendering="inherit" font-size="12" dy=".8em" y="666.5" x="1818.5">计划和执行应用迁移、设计混合云架构</text></g></g><g id="minder_node49"><g id="node_expander48" style="cursor: pointer;"><path id="kity_path_418" fill="white" stroke="gray" d="M1649.5,135.5A6,6,0,1,1,1637.5,135.5A6,6,0,1,1,1649.5,135.5"></path><path id="kity_path_419" fill="none" stroke="gray" d="M1639,135.5L1648,135.5"></path></g><path id="node_outline49" fill="none" stroke="none" d="M1654.5,124.5h34a5,5,0,0,1,5,5v12a5,5,0,0,1,-5,5h-34a5,5,0,0,1,-5,-5v-12a5,5,0,0,1,5,-5z" stroke-width="3"></path><g id="node_text49" fill="black"><text id="kity_text_415" text-rendering="inherit" font-size="12" dy=".8em" y="129.5" x="1659.5">领域</text></g></g><g id="minder_node50" opacity="1"><g id="node_expander49" style="cursor: pointer;" display="none"><path id="kity_path_426" fill="white" stroke="gray" d="M1733.5,187.5A6,6,0,1,1,1721.5,187.5A6,6,0,1,1,1733.5,187.5"></path><path id="kity_path_427" fill="none" stroke="gray"></path></g><path id="node_outline50" fill="none" stroke="none" d="M1738.5,176.5h163a5,5,0,0,1,5,5v12a5,5,0,0,1,-5,5h-163a5,5,0,0,1,-5,-5v-12a5,5,0,0,1,5,-5z" stroke-width="3"></path><g id="node_text50" fill="black"><text id="kity_text_423" text-rendering="inherit" font-size="12" dy=".8em" y="181.5" x="1743.5">实施成本控制策略（12.5%）</text></g></g><g id="minder_node55"><g id="node_expander54" style="cursor: pointer;" display="none"><path id="kity_path_466" fill="white" stroke="gray" d="M1733.5,31.5A6,6,0,1,1,1721.5,31.5A6,6,0,1,1,1733.5,31.5"></path><path id="kity_path_467" fill="none" stroke="gray" d="M1723,31.5L1732,31.5"></path></g><path id="node_outline55" fill="none" stroke="none" d="M1738.5,20.5h211a5,5,0,0,1,5,5v12a5,5,0,0,1,-5,5h-211a5,5,0,0,1,-5,-5v-12a5,5,0,0,1,5,-5z" stroke-width="3"></path><g id="node_text55" fill="black"><text id="kity_text_463" text-rendering="inherit" font-size="12" dy=".8em" y="25.5" x="1743.5">根据组织复杂程度进行设计（12.5%）</text></g></g><g id="minder_node57"><g id="node_expander56" style="cursor: pointer;" display="none"><path id="kity_path_482" fill="white" stroke="gray" d="M1733.5,83.5A6,6,0,1,1,1721.5,83.5A6,6,0,1,1,1733.5,83.5"></path><path id="kity_path_483" fill="none" stroke="gray"></path></g><path id="node_outline57" fill="none" stroke="none" d="M1738.5,72.5h153a5,5,0,0,1,5,5v12a5,5,0,0,1,-5,5h-153a5,5,0,0,1,-5,-5v-12a5,5,0,0,1,5,-5z" stroke-width="3"></path><g id="node_text57" fill="black"><text id="kity_text_479" text-rendering="inherit" font-size="12" dy=".8em" y="77.5" x="1743.5">设计新的解决方案（31%）</text></g></g><g id="minder_node58"><g id="node_expander57" style="cursor: pointer;" display="none"><path id="kity_path_490" fill="white" stroke="gray" d="M1733.5,135.5A6,6,0,1,1,1721.5,135.5A6,6,0,1,1,1733.5,135.5"></path><path id="kity_path_491" fill="none" stroke="gray"></path></g><path id="node_outline58" fill="none" stroke="none" d="M1738.5,124.5h105a5,5,0,0,1,5,5v12a5,5,0,0,1,-5,5h-105a5,5,0,0,1,-5,-5v-12a5,5,0,0,1,5,-5z" stroke-width="3"></path><g id="node_text58" fill="black"><text id="kity_text_487" text-rendering="inherit" font-size="12" dy=".8em" y="129.5" x="1743.5">迁移计划（15%）</text></g></g><g id="kity_g_12" display="none"><path id="kity_path_13" fill="none" stroke="rgb(66, 94, 112)" d="M1622.5,65.5h34a5,5,0,0,1,5,5v12a5,5,0,0,1,-5,5h-34a5,5,0,0,1,-5,-5v-12a5,5,0,0,1,5,-5z" stroke-width="5"></path></g><g id="minder_node59"><g id="node_expander58" style="cursor: pointer;" display="none"><path id="kity_path_498" fill="white" stroke="gray" d="M1733.5,239.5A6,6,0,1,1,1721.5,239.5A6,6,0,1,1,1733.5,239.5"></path><path id="kity_path_499" fill="none" stroke="gray"></path></g><path id="node_outline59" fill="none" stroke="none" d="M1738.5,228.5h177a5,5,0,0,1,5,5v12a5,5,0,0,1,-5,5h-177a5,5,0,0,1,-5,-5v-12a5,5,0,0,1,5,-5z" stroke-width="3"></path><g id="node_text59" fill="black"><text id="kity_text_495" text-rendering="inherit" font-size="12" dy=".8em" y="233.5" x="1743.5">持续优化已有解决方案（29%）</text></g></g></g></g></svg>