<svg id="kity_svg_6" xmlns="http://www.w3.org/2000/svg" xmlns:xlink="http://www.w3.org/1999/xlink" version="1.1" width="2421" height="1127" style="background: rgb(251, 251, 251); visibility: visible;" viewBox="0 0 2421 1127"><defs id="kity_defs_7"><linearGradient id="kity_linearGradient_17" x1="0" y1="0" x2="0" y2="1"><stop id="kity_stop_18" offset="0" stop-color="rgb(255, 255, 255)"></stop><stop id="kity_stop_19" offset="1" stop-color="rgb(204, 204, 204)"></stop></linearGradient><marker id="kity_marker_2" orient="auto" refX="6" refY="0" viewBox="-7 -7 14 14" markerWidth="7" markerHeight="7" markerUnits="userSpaceOnUse"><path id="kity_path_3" fill="rgb(115, 161, 191)" stroke="none" d="M6,0A6,6,0,1,1,-6,0A6,6,0,1,1,6,0"></path></marker></defs><g id="kity_g_8"><g id="minder1" text-rendering="optimize-speed"><g id="minder_connect_group1"><path id="kity_path_31" fill="none" stroke="rgb(115, 161, 191)" stroke-width="1" d="M150,602.5A202.5,3,0,0,1,352.5,599.5"></path><path id="kity_path_278" fill="none" stroke="rgb(115, 161, 191)" stroke-width="1" d="M616.5,599.5C625.5,599.5,625.5,71.5,634.5,71.5L1217.5,71.5"></path><path id="kity_path_295" fill="none" stroke="rgb(115, 161, 191)" stroke-width="1" d="M1217.5,71.5C1232.5,71.5,1232.5,45.5,1247.5,45.5L1985.5,45.5"></path><path id="kity_path_296" fill="none" stroke="rgb(115, 161, 191)" stroke-width="1" d="M1217.5,71.5C1232.5,71.5,1232.5,97.5,1247.5,97.5L1348.5,97.5"></path><path id="kity_path_298" fill="none" stroke="rgb(115, 161, 191)" stroke-width="1" d="M616.5,599.5C631.5,599.5,631.5,249.5,646.5,249.5L1633.5,249.5"></path><path id="kity_path_314" fill="none" stroke="rgb(115, 161, 191)" stroke-width="1" d="M1633.5,249.5C1648.5,249.5,1648.5,223.5,1663.5,223.5L2401.5,223.5"></path><path id="kity_path_322" fill="none" stroke="rgb(115, 161, 191)" stroke-width="1" d="M1633.5,249.5C1648.5,249.5,1648.5,275.5,1663.5,275.5L1764.5,275.5"></path><path id="kity_path_345" fill="none" stroke="rgb(115, 161, 191)" stroke-width="1" d="M616.5,599.5C631.5,599.5,631.5,353.5,646.5,353.5L1410.5,353.5"></path><path id="kity_path_369" fill="none" stroke="rgb(115, 161, 191)" stroke-width="1" d="M1410.5,353.5C1425.5,353.5,1425.5,327.5,1440.5,327.5L2178.5,327.5"></path><path id="kity_path_377" fill="none" stroke="rgb(115, 161, 191)" stroke-width="1" d="M1410.5,353.5C1425.5,353.5,1425.5,379.5,1440.5,379.5L1541.5,379.5"></path><path id="kity_path_398" fill="none" stroke="rgb(115, 161, 191)" stroke-width="1" d="M616.5,599.5C631.5,599.5,631.5,457.5,646.5,457.5L883.5,457.5"></path><path id="kity_path_406" fill="none" stroke="rgb(115, 161, 191)" stroke-width="1" d="M883.5,457.5C898.5,457.5,898.5,431.5,913.5,431.5L1105.5,431.5"></path><path id="kity_path_414" fill="none" stroke="rgb(115, 161, 191)" stroke-width="1" d="M883.5,457.5C898.5,457.5,898.5,483.5,913.5,483.5L1020.5,483.5"></path><path id="kity_path_430" fill="none" stroke="rgb(115, 161, 191)" stroke-width="1" d="M616.5,599.5C631.5,599.5,631.5,561.5,646.5,561.5L954.5,561.5"></path><path id="kity_path_438" fill="none" stroke="rgb(115, 161, 191)" stroke-width="1" d="M954.5,561.5C969.5,561.5,969.5,535.5,984.5,535.5L1210.5,535.5"></path><path id="kity_path_446" fill="none" stroke="rgb(115, 161, 191)" stroke-width="1" d="M954.5,561.5C969.5,561.5,969.5,587.5,984.5,587.5L1091.5,587.5"></path><path id="kity_path_454" fill="none" stroke="rgb(115, 161, 191)" stroke-width="1" d="M616.5,599.5C631.5,599.5,631.5,665.5,646.5,665.5L1417.5,665.5"></path><path id="kity_path_470" fill="none" stroke="rgb(115, 161, 191)" stroke-width="1" d="M1417.5,665.5C1432.5,665.5,1432.5,639.5,1447.5,639.5L2212.5,639.5"></path><path id="kity_path_478" fill="none" stroke="rgb(115, 161, 191)" stroke-width="1" d="M1417.5,665.5C1432.5,665.5,1432.5,691.5,1447.5,691.5L1548.5,691.5"></path><path id="kity_path_494" fill="none" stroke="rgb(115, 161, 191)" stroke-width="1" d="M616.5,599.5C631.5,599.5,631.5,769.5,646.5,769.5L1095.5,769.5"></path><path id="kity_path_502" fill="none" stroke="rgb(115, 161, 191)" stroke-width="1" d="M1095.5,769.5C1110.5,769.5,1110.5,743.5,1125.5,743.5L1251.5,743.5"></path><path id="kity_path_510" fill="none" stroke="rgb(115, 161, 191)" stroke-width="1" d="M1095.5,769.5C1110.5,769.5,1110.5,795.5,1125.5,795.5L1219.5,795.5"></path><path id="kity_path_526" fill="none" stroke="rgb(115, 161, 191)" stroke-width="1" d="M616.5,599.5C631.5,599.5,631.5,873.5,646.5,873.5L1057.5,873.5"></path><path id="kity_path_534" fill="none" stroke="rgb(115, 161, 191)" stroke-width="1" d="M1057.5,873.5C1072.5,873.5,1072.5,847.5,1087.5,847.5L1825.5,847.5"></path><path id="kity_path_542" fill="none" stroke="rgb(115, 161, 191)" stroke-width="1" d="M1057.5,873.5C1072.5,873.5,1072.5,899.5,1087.5,899.5L1188.5,899.5"></path><path id="kity_path_550" fill="none" stroke="rgb(115, 161, 191)" stroke-width="1" d="M616.5,599.5C631.5,599.5,631.5,977.5,646.5,977.5L1194.5,977.5"></path><path id="kity_path_558" fill="none" stroke="rgb(115, 161, 191)" stroke-width="1" d="M1194.5,977.5C1209.5,977.5,1209.5,951.5,1224.5,951.5L1962.5,951.5"></path><path id="kity_path_566" fill="none" stroke="rgb(115, 161, 191)" stroke-width="1" d="M1194.5,977.5C1209.5,977.5,1209.5,1003.5,1224.5,1003.5L1325.5,1003.5"></path><path id="kity_path_574" fill="none" stroke="rgb(115, 161, 191)" stroke-width="1" d="M616.5,599.5C631.5,599.5,631.5,1081.5,646.5,1081.5L1022.5,1081.5"></path><path id="kity_path_582" fill="none" stroke="rgb(115, 161, 191)" stroke-width="1" d="M1022.5,1081.5C1037.5,1081.5,1037.5,1055.5,1052.5,1055.5L1449.5,1055.5"></path><path id="kity_path_590" fill="none" stroke="rgb(115, 161, 191)" stroke-width="1" d="M1022.5,1081.5C1037.5,1081.5,1037.5,1107.5,1052.5,1107.5L1153.5,1107.5"></path></g><g id="minder_node1"><path id="node_outline1" fill="rgb(115, 161, 191)" stroke="rgb(115, 161, 191)" d="M25.5,582.5h249a5,5,0,0,1,5,5v30a5,5,0,0,1,-5,5h-249a5,5,0,0,1,-5,-5v-30a5,5,0,0,1,5,-5z" stroke-width="3"></path><g id="node_text1" fill="white"><text id="kity_text_22" text-rendering="inherit" font-size="16" dy=".8em" y="594.5" x="44.5">关于AWS解决方案架构师考试</text></g></g><g id="kity_g_12" display="none"><path id="kity_path_13" fill="none" stroke="none" d="M44.5,602.5h0v0h0z"></path></g><g id="kity_g_14" display="none"><path id="kity_path_15" fill="none" stroke="none" d="M44.5,602.5h0v0h0z"></path><path id="kity_path_16" fill="none" stroke="none"></path></g><g id="minder_node2" opacity="1"><g id="node_expander1" style="cursor: pointer;"><path id="kity_path_36" fill="white" stroke="gray" d="M353.5,599.5A6,6,0,1,1,341.5,599.5A6,6,0,1,1,353.5,599.5"></path><path id="kity_path_37" fill="none" stroke="gray" d="M343,599.5L352,599.5"></path></g><path id="node_outline2" fill="rgb(238, 243, 246)" stroke="rgb(115, 161, 191)" d="M357.5,586.5h256a3,3,0,0,1,3,3v20a3,3,0,0,1,-3,3h-256a3,3,0,0,1,-3,-3v-20a3,3,0,0,1,3,-3z" stroke-width="1"></path><g id="node_text2" fill="black"><text id="kity_text_33" text-rendering="inherit" font-size="14" dy=".8em" y="592.5" x="374.5">建议的AWS和通用IT通用知识与经验</text></g></g><g id="minder_node32" opacity="1"><g id="node_expander31" style="cursor: pointer;"><path id="kity_path_276" fill="white" stroke="gray" d="M644.5,57.5A6,6,0,1,1,632.5,57.5A6,6,0,1,1,644.5,57.5"></path><path id="kity_path_277" fill="none" stroke="gray" d="M634,57.5L643,57.5"></path></g><path id="node_outline32" fill="none" stroke="none" d="M649.5,46.5h563a5,5,0,0,1,5,5v12a5,5,0,0,1,-5,5h-563a5,5,0,0,1,-5,-5v-12a5,5,0,0,1,5,-5z" stroke-width="3"></path><g id="node_text32" fill="black"><text id="kity_text_273" text-rendering="inherit" font-size="12" dy=".8em" y="51.5" x="654.5">Two or more years of hands-on experience designing and deploying cloud architecture on AWS</text></g></g><g id="minder_node33"><g id="node_expander32" style="cursor: pointer;" display="none"><path id="kity_path_285" fill="white" stroke="gray" d="M1257.5,31.5A6,6,0,1,1,1245.5,31.5A6,6,0,1,1,1257.5,31.5"></path><path id="kity_path_286" fill="none" stroke="gray"></path></g><path id="node_outline33" fill="none" stroke="none" d="M1262.5,20.5h718a5,5,0,0,1,5,5v12a5,5,0,0,1,-5,5h-718a5,5,0,0,1,-5,-5v-12a5,5,0,0,1,5,-5z" stroke-width="3"></path><g id="node_text33" fill="black"><text id="kity_text_282" text-rendering="inherit" font-size="12" dy=".8em" y="25.5" x="1267.5">我的情况：有两年半的云服务模块开发、运维经验，了解云服务的设计开发部署运维流程；缺少参与或独立进行云服务架构设计的经验</text></g></g><g id="minder_node34"><g id="node_expander33" style="cursor: pointer;" display="none"><path id="kity_path_293" fill="white" stroke="gray" d="M1257.5,83.5A6,6,0,1,1,1245.5,83.5A6,6,0,1,1,1257.5,83.5"></path><path id="kity_path_294" fill="none" stroke="gray"></path></g><path id="node_outline34" fill="none" stroke="none" d="M1262.5,72.5h81a5,5,0,0,1,5,5v12a5,5,0,0,1,-5,5h-81a5,5,0,0,1,-5,-5v-12a5,5,0,0,1,5,-5z" stroke-width="3"></path><g id="node_text34" fill="black"><text id="kity_text_290" text-rendering="inherit" font-size="12" dy=".8em" y="77.5" x="1267.5">满足度：25%</text></g></g><g id="minder_node35"><g id="node_expander34" style="cursor: pointer;"><path id="kity_path_308" fill="white" stroke="gray" d="M656.5,235.5A6,6,0,1,1,644.5,235.5A6,6,0,1,1,656.5,235.5"></path><path id="kity_path_309" fill="none" stroke="gray" d="M646,235.5L655,235.5"></path></g><path id="node_outline35" fill="none" stroke="none" d="M661.5,224.5h967a5,5,0,0,1,5,5v12a5,5,0,0,1,-5,5h-967a5,5,0,0,1,-5,-5v-12a5,5,0,0,1,5,-5z" stroke-width="3"></path><g id="node_text35" fill="black"><text id="kity_text_302" text-rendering="inherit" font-size="12" dy=".8em" y="229.5" x="666.5">Ability to evaluate cloud application requirements and make architectural recommendations for implementation, deployment, and provisioning applications on AWS</text></g></g><g id="minder_node37"><g id="node_expander36" style="cursor: pointer;" display="none"><path id="kity_path_319" fill="white" stroke="gray" d="M1673.5,209.5A6,6,0,1,1,1661.5,209.5A6,6,0,1,1,1673.5,209.5"></path><path id="kity_path_320" fill="none" stroke="gray"></path></g><path id="node_outline37" fill="none" stroke="none" d="M1678.5,198.5h718a5,5,0,0,1,5,5v12a5,5,0,0,1,-5,5h-718a5,5,0,0,1,-5,-5v-12a5,5,0,0,1,5,-5z" stroke-width="3"></path><g id="node_text37" fill="black"><text id="kity_text_316" text-rendering="inherit" font-size="12" dy=".8em" y="203.5" x="1683.5">我的情况：有两年半的云服务模块开发、运维经验，了解云服务的设计开发部署运维流程；缺少参与或独立进行云服务架构设计的经验</text></g></g><g id="minder_node38"><g id="node_expander37" style="cursor: pointer;" display="none"><path id="kity_path_327" fill="white" stroke="gray" d="M1673.5,261.5A6,6,0,1,1,1661.5,261.5A6,6,0,1,1,1673.5,261.5"></path><path id="kity_path_328" fill="none" stroke="gray"></path></g><path id="node_outline38" fill="none" stroke="none" d="M1678.5,250.5h81a5,5,0,0,1,5,5v12a5,5,0,0,1,-5,5h-81a5,5,0,0,1,-5,-5v-12a5,5,0,0,1,5,-5z" stroke-width="3"></path><g id="node_text38" fill="black"><text id="kity_text_324" text-rendering="inherit" font-size="12" dy=".8em" y="255.5" x="1683.5">满足度：20%</text></g></g><g id="minder_node40"><g id="node_expander39" style="cursor: pointer;"><path id="kity_path_355" fill="white" stroke="gray" d="M656.5,339.5A6,6,0,1,1,644.5,339.5A6,6,0,1,1,656.5,339.5"></path><path id="kity_path_356" fill="none" stroke="gray" d="M646,339.5L655,339.5"></path></g><path id="node_outline40" fill="none" stroke="none" d="M661.5,328.5h744a5,5,0,0,1,5,5v12a5,5,0,0,1,-5,5h-744a5,5,0,0,1,-5,-5v-12a5,5,0,0,1,5,-5z" stroke-width="3"></path><g id="node_text40" fill="black"><text id="kity_text_349" text-rendering="inherit" font-size="12" dy=".8em" y="333.5" x="666.5">Ability to provide best practice guidance on the architectural design across multiple applications and projects of the enterprise</text></g></g><g id="minder_node43"><g id="node_expander42" style="cursor: pointer;" display="none"><path id="kity_path_374" fill="white" stroke="gray" d="M1450.5,313.5A6,6,0,1,1,1438.5,313.5A6,6,0,1,1,1450.5,313.5"></path><path id="kity_path_375" fill="none" stroke="gray"></path></g><path id="node_outline43" fill="none" stroke="none" d="M1455.5,302.5h718a5,5,0,0,1,5,5v12a5,5,0,0,1,-5,5h-718a5,5,0,0,1,-5,-5v-12a5,5,0,0,1,5,-5z" stroke-width="3"></path><g id="node_text43" fill="black"><text id="kity_text_371" text-rendering="inherit" font-size="12" dy=".8em" y="307.5" x="1460.5">我的情况：有两年半的云服务模块开发、运维经验，了解云服务的设计开发部署运维流程；缺少参与或独立进行云服务架构设计的经验</text></g></g><g id="minder_node44"><g id="node_expander43" style="cursor: pointer;" display="none"><path id="kity_path_382" fill="white" stroke="gray" d="M1450.5,365.5A6,6,0,1,1,1438.5,365.5A6,6,0,1,1,1450.5,365.5"></path><path id="kity_path_383" fill="none" stroke="gray"></path></g><path id="node_outline44" fill="none" stroke="none" d="M1455.5,354.5h81a5,5,0,0,1,5,5v12a5,5,0,0,1,-5,5h-81a5,5,0,0,1,-5,-5v-12a5,5,0,0,1,5,-5z" stroke-width="3"></path><g id="node_text44" fill="black"><text id="kity_text_379" text-rendering="inherit" font-size="12" dy=".8em" y="359.5" x="1460.5">满足度：15%</text></g></g><g id="minder_node46"><g id="node_expander45" style="cursor: pointer;"><path id="kity_path_403" fill="white" stroke="gray" d="M656.5,443.5A6,6,0,1,1,644.5,443.5A6,6,0,1,1,656.5,443.5"></path><path id="kity_path_404" fill="none" stroke="gray" d="M646,443.5L655,443.5"></path></g><path id="node_outline46" fill="none" stroke="none" d="M661.5,432.5h217a5,5,0,0,1,5,5v12a5,5,0,0,1,-5,5h-217a5,5,0,0,1,-5,-5v-12a5,5,0,0,1,5,-5z" stroke-width="3"></path><g id="node_text46" fill="black"><text id="kity_text_400" text-rendering="inherit" font-size="12" dy=".8em" y="437.5" x="666.5">Familiarity with a scripting language</text></g></g><g id="minder_node47"><g id="node_expander46" style="cursor: pointer;" display="none"><path id="kity_path_411" fill="white" stroke="gray" d="M923.5,417.5A6,6,0,1,1,911.5,417.5A6,6,0,1,1,923.5,417.5"></path><path id="kity_path_412" fill="none" stroke="gray"></path></g><path id="node_outline47" fill="none" stroke="none" d="M928.5,406.5h172a5,5,0,0,1,5,5v12a5,5,0,0,1,-5,5h-172a5,5,0,0,1,-5,-5v-12a5,5,0,0,1,5,-5z" stroke-width="3"></path><g id="node_text47" fill="black"><text id="kity_text_408" text-rendering="inherit" font-size="12" dy=".8em" y="411.5" x="933.5">我的情况：熟悉Python、Shell</text></g></g><g id="minder_node48"><g id="node_expander47" style="cursor: pointer;" display="none"><path id="kity_path_419" fill="white" stroke="gray" d="M923.5,469.5A6,6,0,1,1,911.5,469.5A6,6,0,1,1,923.5,469.5"></path><path id="kity_path_420" fill="none" stroke="gray"></path></g><path id="node_outline48" fill="none" stroke="none" d="M928.5,458.5h87a5,5,0,0,1,5,5v12a5,5,0,0,1,-5,5h-87a5,5,0,0,1,-5,-5v-12a5,5,0,0,1,5,-5z" stroke-width="3"></path><g id="node_text48" fill="black"><text id="kity_text_416" text-rendering="inherit" font-size="12" dy=".8em" y="463.5" x="933.5">满足度：100%</text></g></g><g id="minder_node50"><g id="node_expander49" style="cursor: pointer;"><path id="kity_path_435" fill="white" stroke="gray" d="M656.5,547.5A6,6,0,1,1,644.5,547.5A6,6,0,1,1,656.5,547.5"></path><path id="kity_path_436" fill="none" stroke="gray" d="M646,547.5L655,547.5"></path></g><path id="node_outline50" fill="none" stroke="none" d="M661.5,536.5h288a5,5,0,0,1,5,5v12a5,5,0,0,1,-5,5h-288a5,5,0,0,1,-5,-5v-12a5,5,0,0,1,5,-5z" stroke-width="3"></path><g id="node_text50" fill="black"><text id="kity_text_432" text-rendering="inherit" font-size="12" dy=".8em" y="541.5" x="666.5">Familiarity with Windows and Linux environments</text></g></g><g id="minder_node51"><g id="node_expander50" style="cursor: pointer;" display="none"><path id="kity_path_443" fill="white" stroke="gray" d="M994.5,521.5A6,6,0,1,1,982.5,521.5A6,6,0,1,1,994.5,521.5"></path><path id="kity_path_444" fill="none" stroke="gray"></path></g><path id="node_outline51" fill="none" stroke="none" d="M999.5,510.5h206a5,5,0,0,1,5,5v12a5,5,0,0,1,-5,5h-206a5,5,0,0,1,-5,-5v-12a5,5,0,0,1,5,-5z" stroke-width="3"></path><g id="node_text51" fill="black"><text id="kity_text_440" text-rendering="inherit" font-size="12" dy=".8em" y="515.5" x="1004.5">我的情况：熟悉Window和Linux环境</text></g></g><g id="minder_node52"><g id="node_expander51" style="cursor: pointer;" display="none"><path id="kity_path_451" fill="white" stroke="gray" d="M994.5,573.5A6,6,0,1,1,982.5,573.5A6,6,0,1,1,994.5,573.5"></path><path id="kity_path_452" fill="none" stroke="gray"></path></g><path id="node_outline52" fill="none" stroke="none" d="M999.5,562.5h87a5,5,0,0,1,5,5v12a5,5,0,0,1,-5,5h-87a5,5,0,0,1,-5,-5v-12a5,5,0,0,1,5,-5z" stroke-width="3"></path><g id="node_text52" fill="black"><text id="kity_text_448" text-rendering="inherit" font-size="12" dy=".8em" y="567.5" x="1004.5">满足度：100%</text></g></g><g id="minder_node53"><g id="node_expander52" style="cursor: pointer;"><path id="kity_path_464" fill="white" stroke="gray" d="M656.5,651.5A6,6,0,1,1,644.5,651.5A6,6,0,1,1,656.5,651.5"></path><path id="kity_path_465" fill="none" stroke="gray" d="M646,651.5L655,651.5"></path></g><path id="node_outline53" fill="none" stroke="none" d="M661.5,640.5h751a5,5,0,0,1,5,5v12a5,5,0,0,1,-5,5h-751a5,5,0,0,1,-5,-5v-12a5,5,0,0,1,5,-5z" stroke-width="3"></path><g id="node_text53" fill="black"><text id="kity_text_458" text-rendering="inherit" font-size="12" dy=".8em" y="645.5" x="666.5">Familiarity with AWS CLI, AWS APIs, AWS CloudFormation templates, the AWS Billing Console, and the AWS Management Console</text></g></g><g id="minder_node55"><g id="node_expander54" style="cursor: pointer;" display="none"><path id="kity_path_475" fill="white" stroke="gray" d="M1457.5,625.5A6,6,0,1,1,1445.5,625.5A6,6,0,1,1,1457.5,625.5"></path><path id="kity_path_476" fill="none" stroke="gray"></path></g><path id="node_outline55" fill="none" stroke="none" d="M1462.5,614.5h745a5,5,0,0,1,5,5v12a5,5,0,0,1,-5,5h-745a5,5,0,0,1,-5,-5v-12a5,5,0,0,1,5,-5z" stroke-width="3"></path><g id="node_text55" fill="black"><text id="kity_text_472" text-rendering="inherit" font-size="12" dy=".8em" y="619.5" x="1467.5">我的情况：使用过AWS的ECS、EIP服务；不熟悉CLI、API、CloudFormation模板与计费；有其他云服务提供商（华为云）的使用开发经验</text></g></g><g id="minder_node56"><g id="node_expander55" style="cursor: pointer;" display="none"><path id="kity_path_483" fill="white" stroke="gray" d="M1457.5,677.5A6,6,0,1,1,1445.5,677.5A6,6,0,1,1,1457.5,677.5"></path><path id="kity_path_484" fill="none" stroke="gray"></path></g><path id="node_outline56" fill="none" stroke="none" d="M1462.5,666.5h81a5,5,0,0,1,5,5v12a5,5,0,0,1,-5,5h-81a5,5,0,0,1,-5,-5v-12a5,5,0,0,1,5,-5z" stroke-width="3"></path><g id="node_text56" fill="black"><text id="kity_text_480" text-rendering="inherit" font-size="12" dy=".8em" y="671.5" x="1467.5">满足度：40%</text></g></g><g id="minder_node58"><g id="node_expander57" style="cursor: pointer;"><path id="kity_path_499" fill="white" stroke="gray" d="M656.5,755.5A6,6,0,1,1,644.5,755.5A6,6,0,1,1,656.5,755.5"></path><path id="kity_path_500" fill="none" stroke="gray" d="M646,755.5L655,755.5"></path></g><path id="node_outline58" fill="none" stroke="none" d="M661.5,744.5h429a5,5,0,0,1,5,5v12a5,5,0,0,1,-5,5h-429a5,5,0,0,1,-5,-5v-12a5,5,0,0,1,5,-5z" stroke-width="3"></path><g id="node_text58" fill="black"><text id="kity_text_496" text-rendering="inherit" font-size="12" dy=".8em" y="749.5" x="666.5">Explain and apply the five pillars of the AWS Well-Architected Framework</text></g></g><g id="minder_node59"><g id="node_expander58" style="cursor: pointer;" display="none"><path id="kity_path_507" fill="white" stroke="gray" d="M1135.5,729.5A6,6,0,1,1,1123.5,729.5A6,6,0,1,1,1135.5,729.5"></path><path id="kity_path_508" fill="none" stroke="gray"></path></g><path id="node_outline59" fill="none" stroke="none" d="M1140.5,718.5h106a5,5,0,0,1,5,5v12a5,5,0,0,1,-5,5h-106a5,5,0,0,1,-5,-5v-12a5,5,0,0,1,5,-5z" stroke-width="3"></path><g id="node_text59" fill="black"><text id="kity_text_504" text-rendering="inherit" font-size="12" dy=".8em" y="723.5" x="1145.5">我的情况：不了解</text></g></g><g id="minder_node60"><g id="node_expander59" style="cursor: pointer;" display="none"><path id="kity_path_515" fill="white" stroke="gray" d="M1135.5,781.5A6,6,0,1,1,1123.5,781.5A6,6,0,1,1,1135.5,781.5"></path><path id="kity_path_516" fill="none" stroke="gray"></path></g><path id="node_outline60" fill="none" stroke="none" d="M1140.5,770.5h74a5,5,0,0,1,5,5v12a5,5,0,0,1,-5,5h-74a5,5,0,0,1,-5,-5v-12a5,5,0,0,1,5,-5z" stroke-width="3"></path><g id="node_text60" fill="black"><text id="kity_text_512" text-rendering="inherit" font-size="12" dy=".8em" y="775.5" x="1145.5">满足度：0%</text></g></g><g id="minder_node62"><g id="node_expander61" style="cursor: pointer;"><path id="kity_path_531" fill="white" stroke="gray" d="M656.5,859.5A6,6,0,1,1,644.5,859.5A6,6,0,1,1,656.5,859.5"></path><path id="kity_path_532" fill="none" stroke="gray" d="M646,859.5L655,859.5"></path></g><path id="node_outline62" fill="none" stroke="none" d="M661.5,848.5h391a5,5,0,0,1,5,5v12a5,5,0,0,1,-5,5h-391a5,5,0,0,1,-5,-5v-12a5,5,0,0,1,5,-5z" stroke-width="3"></path><g id="node_text62" fill="black"><text id="kity_text_528" text-rendering="inherit" font-size="12" dy=".8em" y="853.5" x="666.5">Map business objectives to application/architecture requirements</text></g></g><g id="minder_node63"><g id="node_expander62" style="cursor: pointer;" display="none"><path id="kity_path_539" fill="white" stroke="gray" d="M1097.5,833.5A6,6,0,1,1,1085.5,833.5A6,6,0,1,1,1097.5,833.5"></path><path id="kity_path_540" fill="none" stroke="gray"></path></g><path id="node_outline63" fill="none" stroke="none" d="M1102.5,822.5h718a5,5,0,0,1,5,5v12a5,5,0,0,1,-5,5h-718a5,5,0,0,1,-5,-5v-12a5,5,0,0,1,5,-5z" stroke-width="3"></path><g id="node_text63" fill="black"><text id="kity_text_536" text-rendering="inherit" font-size="12" dy=".8em" y="827.5" x="1107.5">我的情况：有两年半的云服务模块开发、运维经验，了解云服务的设计开发部署运维流程；缺少参与或独立进行云服务架构设计的经验</text></g></g><g id="minder_node64"><g id="node_expander63" style="cursor: pointer;" display="none"><path id="kity_path_547" fill="white" stroke="gray" d="M1097.5,885.5A6,6,0,1,1,1085.5,885.5A6,6,0,1,1,1097.5,885.5"></path><path id="kity_path_548" fill="none" stroke="gray"></path></g><path id="node_outline64" fill="none" stroke="none" d="M1102.5,874.5h81a5,5,0,0,1,5,5v12a5,5,0,0,1,-5,5h-81a5,5,0,0,1,-5,-5v-12a5,5,0,0,1,5,-5z" stroke-width="3"></path><g id="node_text64" fill="black"><text id="kity_text_544" text-rendering="inherit" font-size="12" dy=".8em" y="879.5" x="1107.5">满足度：20%</text></g></g><g id="minder_node65"><g id="node_expander64" style="cursor: pointer;"><path id="kity_path_555" fill="white" stroke="gray" d="M656.5,963.5A6,6,0,1,1,644.5,963.5A6,6,0,1,1,656.5,963.5"></path><path id="kity_path_556" fill="none" stroke="gray" d="M646,963.5L655,963.5"></path></g><path id="node_outline65" fill="none" stroke="none" d="M661.5,952.5h528a5,5,0,0,1,5,5v12a5,5,0,0,1,-5,5h-528a5,5,0,0,1,-5,-5v-12a5,5,0,0,1,5,-5z" stroke-width="3"></path><g id="node_text65" fill="black"><text id="kity_text_552" text-rendering="inherit" font-size="12" dy=".8em" y="957.5" x="666.5">Design a hybrid architecture using key AWS technologies (e.g., VPN, AWS Direct Connect)</text></g></g><g id="minder_node66"><g id="node_expander65" style="cursor: pointer;" display="none"><path id="kity_path_563" fill="white" stroke="gray" d="M1234.5,937.5A6,6,0,1,1,1222.5,937.5A6,6,0,1,1,1234.5,937.5"></path><path id="kity_path_564" fill="none" stroke="gray"></path></g><path id="node_outline66" fill="none" stroke="none" d="M1239.5,926.5h718a5,5,0,0,1,5,5v12a5,5,0,0,1,-5,5h-718a5,5,0,0,1,-5,-5v-12a5,5,0,0,1,5,-5z" stroke-width="3"></path><g id="node_text66" fill="black"><text id="kity_text_560" text-rendering="inherit" font-size="12" dy=".8em" y="931.5" x="1244.5">我的情况：有两年半的云服务模块开发、运维经验，了解云服务的设计开发部署运维流程；缺少参与或独立进行云服务架构设计的经验</text></g></g><g id="minder_node67"><g id="node_expander66" style="cursor: pointer;" display="none"><path id="kity_path_571" fill="white" stroke="gray" d="M1234.5,989.5A6,6,0,1,1,1222.5,989.5A6,6,0,1,1,1234.5,989.5"></path><path id="kity_path_572" fill="none" stroke="gray"></path></g><path id="node_outline67" fill="none" stroke="none" d="M1239.5,978.5h81a5,5,0,0,1,5,5v12a5,5,0,0,1,-5,5h-81a5,5,0,0,1,-5,-5v-12a5,5,0,0,1,5,-5z" stroke-width="3"></path><g id="node_text67" fill="black"><text id="kity_text_568" text-rendering="inherit" font-size="12" dy=".8em" y="983.5" x="1244.5">满足度：20%</text></g></g><g id="minder_node68"><g id="node_expander67" style="cursor: pointer;"><path id="kity_path_579" fill="white" stroke="gray" d="M656.5,1067.5A6,6,0,1,1,644.5,1067.5A6,6,0,1,1,656.5,1067.5"></path><path id="kity_path_580" fill="none" stroke="gray" d="M646,1067.5L655,1067.5"></path></g><path id="node_outline68" fill="none" stroke="none" d="M661.5,1056.5h356a5,5,0,0,1,5,5v12a5,5,0,0,1,-5,5h-356a5,5,0,0,1,-5,-5v-12a5,5,0,0,1,5,-5z" stroke-width="3"></path><g id="node_text68" fill="black"><text id="kity_text_576" text-rendering="inherit" font-size="12" dy=".8em" y="1061.5" x="666.5">Architect a continuous integration and deployment process</text></g></g><g id="minder_node69"><g id="node_expander68" style="cursor: pointer;" display="none"><path id="kity_path_587" fill="white" stroke="gray" d="M1062.5,1041.5A6,6,0,1,1,1050.5,1041.5A6,6,0,1,1,1062.5,1041.5"></path><path id="kity_path_588" fill="none" stroke="gray"></path></g><path id="node_outline69" fill="none" stroke="none" d="M1067.5,1030.5h377a5,5,0,0,1,5,5v12a5,5,0,0,1,-5,5h-377a5,5,0,0,1,-5,-5v-12a5,5,0,0,1,5,-5z" stroke-width="3"></path><g id="node_text69" fill="black"><text id="kity_text_584" text-rendering="inherit" font-size="12" dy=".8em" y="1035.5" x="1072.5">我的情况：熟悉持续集成与持续交付过程，对于CICD有较深入的理解</text></g></g><g id="minder_node70"><g id="node_expander69" style="cursor: pointer;" display="none"><path id="kity_path_595" fill="white" stroke="gray" d="M1062.5,1093.5A6,6,0,1,1,1050.5,1093.5A6,6,0,1,1,1062.5,1093.5"></path><path id="kity_path_596" fill="none" stroke="gray"></path></g><path id="node_outline70" fill="none" stroke="none" d="M1067.5,1082.5h81a5,5,0,0,1,5,5v12a5,5,0,0,1,-5,5h-81a5,5,0,0,1,-5,-5v-12a5,5,0,0,1,5,-5z" stroke-width="3"></path><g id="node_text70" fill="black"><text id="kity_text_592" text-rendering="inherit" font-size="12" dy=".8em" y="1087.5" x="1072.5">满足度：90%</text></g></g></g></g></svg>