<svg id="kity_svg_6" xmlns="http://www.w3.org/2000/svg" xmlns:xlink="http://www.w3.org/1999/xlink" version="1.1" width="2630" height="1642" style="background: rgb(251, 251, 251); visibility: visible;" viewBox="0 0 2630 1642"><defs id="kity_defs_7"><linearGradient id="kity_linearGradient_17" x1="0" y1="0" x2="0" y2="1"><stop id="kity_stop_18" offset="0" stop-color="rgb(255, 255, 255)"></stop><stop id="kity_stop_19" offset="1" stop-color="rgb(204, 204, 204)"></stop></linearGradient><marker id="kity_marker_2" orient="auto" refX="6" refY="0" viewBox="-7 -7 14 14" markerWidth="7" markerHeight="7" markerUnits="userSpaceOnUse"><path id="kity_path_3" fill="rgb(115, 161, 191)" stroke="none" d="M6,0A6,6,0,1,1,-6,0A6,6,0,1,1,6,0"></path></marker></defs><g id="kity_g_8"><g id="minder1" text-rendering="optimize-speed"><g id="minder_connect_group1"><path id="kity_path_31" fill="none" stroke="rgb(115, 161, 191)" stroke-width="1" d="M102,678.5A199.5,595,0,0,1,301.5,83.5"></path><path id="kity_path_33" fill="none" stroke="rgb(115, 161, 191)" stroke-width="1" d="M371.5,83.5C391.5,83.5,391.5,31.5,411.5,31.5"></path><path id="kity_path_35" fill="none" stroke="rgb(115, 161, 191)" stroke-width="1" d="M371.5,83.5C391.5,83.5,391.5,135.5,411.5,135.5"></path><path id="kity_path_37" fill="none" stroke="rgb(115, 161, 191)" stroke-width="1" d="M479.5,135.5C499.5,135.5,499.5,83.5,519.5,83.5"></path><path id="kity_path_39" fill="none" stroke="rgb(115, 161, 191)" stroke-width="1" d="M479.5,135.5C499.5,135.5,499.5,135.5,519.5,135.5"></path><path id="kity_path_41" fill="none" stroke="rgb(115, 161, 191)" stroke-width="1" d="M479.5,135.5C499.5,135.5,499.5,187.5,519.5,187.5"></path><path id="kity_path_43" fill="none" stroke="rgb(115, 161, 191)" stroke-width="1" d="M102,678.5A199.5,91,0,0,1,301.5,587.5"></path><path id="kity_path_45" fill="none" stroke="rgb(115, 161, 191)" stroke-width="1" d="M371.5,587.5C391.5,587.5,391.5,327.5,411.5,327.5"></path><path id="kity_path_47" fill="none" stroke="rgb(115, 161, 191)" stroke-width="1" d="M479.5,327.5C499.5,327.5,499.5,249.5,519.5,249.5"></path><path id="kity_path_49" fill="none" stroke="rgb(115, 161, 191)" stroke-width="1" d="M479.5,327.5C499.5,327.5,499.5,301.5,519.5,301.5"></path><path id="kity_path_51" fill="none" stroke="rgb(115, 161, 191)" stroke-width="1" d="M479.5,327.5C499.5,327.5,499.5,353.5,519.5,353.5"></path><path id="kity_path_53" fill="none" stroke="rgb(115, 161, 191)" stroke-width="1" d="M479.5,327.5C499.5,327.5,499.5,405.5,519.5,405.5"></path><path id="kity_path_55" fill="none" stroke="rgb(115, 161, 191)" stroke-width="1" d="M371.5,587.5C391.5,587.5,391.5,561.5,411.5,561.5"></path><path id="kity_path_57" fill="none" stroke="rgb(115, 161, 191)" stroke-width="1" d="M479.5,561.5C499.5,561.5,499.5,457.5,519.5,457.5"></path><path id="kity_path_59" fill="none" stroke="rgb(115, 161, 191)" stroke-width="1" d="M479.5,561.5C499.5,561.5,499.5,509.5,519.5,509.5"></path><path id="kity_path_61" fill="none" stroke="rgb(115, 161, 191)" stroke-width="1" d="M479.5,561.5C499.5,561.5,499.5,561.5,519.5,561.5"></path><path id="kity_path_63" fill="none" stroke="rgb(115, 161, 191)" stroke-width="1" d="M479.5,561.5C499.5,561.5,499.5,613.5,519.5,613.5"></path><path id="kity_path_65" fill="none" stroke="rgb(115, 161, 191)" stroke-width="1" d="M479.5,561.5C499.5,561.5,499.5,665.5,519.5,665.5"></path><path id="kity_path_67" fill="none" stroke="rgb(115, 161, 191)" stroke-width="1" d="M371.5,587.5C391.5,587.5,391.5,743.5,411.5,743.5"></path><path id="kity_path_69" fill="none" stroke="rgb(115, 161, 191)" stroke-width="1" d="M479.5,743.5C499.5,743.5,499.5,717.5,519.5,717.5"></path><path id="kity_path_71" fill="none" stroke="rgb(115, 161, 191)" stroke-width="1" d="M479.5,743.5C499.5,743.5,499.5,769.5,519.5,769.5"></path><path id="kity_path_73" fill="none" stroke="rgb(115, 161, 191)" stroke-width="1" d="M371.5,587.5C391.5,587.5,391.5,847.5,411.5,847.5"></path><path id="kity_path_75" fill="none" stroke="rgb(115, 161, 191)" stroke-width="1" d="M479.5,847.5C499.5,847.5,499.5,821.5,519.5,821.5"></path><path id="kity_path_77" fill="none" stroke="rgb(115, 161, 191)" stroke-width="1" d="M479.5,847.5C499.5,847.5,499.5,873.5,519.5,873.5"></path><path id="kity_path_79" fill="none" stroke="rgb(115, 161, 191)" stroke-width="1" d="M102,678.5A199.5,595,0,0,0,301.5,1273.5"></path><path id="kity_path_81" fill="none" stroke="rgb(115, 161, 191)" stroke-width="1" d="M401.5,1273.5C421.5,1273.5,421.5,935.5,441.5,935.5"></path><path id="kity_path_83" fill="none" stroke="rgb(115, 161, 191)" stroke-width="1" d="M591.5,935.5C611.5,935.5,611.5,935.5,631.5,935.5"></path><path id="kity_path_85" fill="none" stroke="rgb(115, 161, 191)" stroke-width="1" d="M401.5,1273.5C421.5,1273.5,421.5,987.5,441.5,987.5"></path><path id="kity_path_87" fill="none" stroke="rgb(115, 161, 191)" stroke-width="1" d="M536.5,987.5C556.5,987.5,556.5,987.5,576.5,987.5"></path><path id="kity_path_89" fill="none" stroke="rgb(115, 161, 191)" stroke-width="1" d="M401.5,1273.5C421.5,1273.5,421.5,1039.5,441.5,1039.5"></path><path id="kity_path_91" fill="none" stroke="rgb(115, 161, 191)" stroke-width="1" d="M582.5,1039.5C602.5,1039.5,602.5,1039.5,622.5,1039.5"></path><path id="kity_path_93" fill="none" stroke="rgb(115, 161, 191)" stroke-width="1" d="M401.5,1273.5C421.5,1273.5,421.5,1091.5,441.5,1091.5"></path><path id="kity_path_95" fill="none" stroke="rgb(115, 161, 191)" stroke-width="1" d="M562.5,1091.5C582.5,1091.5,582.5,1091.5,602.5,1091.5"></path><path id="kity_path_97" fill="none" stroke="rgb(115, 161, 191)" stroke-width="1" d="M401.5,1273.5C421.5,1273.5,421.5,1143.5,441.5,1143.5"></path><path id="kity_path_99" fill="none" stroke="rgb(115, 161, 191)" stroke-width="1" d="M597.5,1143.5C617.5,1143.5,617.5,1143.5,637.5,1143.5"></path><path id="kity_path_101" fill="none" stroke="rgb(115, 161, 191)" stroke-width="1" d="M401.5,1273.5C421.5,1273.5,421.5,1195.5,441.5,1195.5"></path><path id="kity_path_103" fill="none" stroke="rgb(115, 161, 191)" stroke-width="1" d="M624.5,1195.5C644.5,1195.5,644.5,1195.5,664.5,1195.5"></path><path id="kity_path_105" fill="none" stroke="rgb(115, 161, 191)" stroke-width="1" d="M401.5,1273.5C421.5,1273.5,421.5,1247.5,441.5,1247.5"></path><path id="kity_path_107" fill="none" stroke="rgb(115, 161, 191)" stroke-width="1" d="M647.5,1247.5C667.5,1247.5,667.5,1247.5,687.5,1247.5"></path><path id="kity_path_109" fill="none" stroke="rgb(115, 161, 191)" stroke-width="1" d="M401.5,1273.5C421.5,1273.5,421.5,1299.5,441.5,1299.5"></path><path id="kity_path_111" fill="none" stroke="rgb(115, 161, 191)" stroke-width="1" d="M523.5,1299.5C543.5,1299.5,543.5,1299.5,563.5,1299.5"></path><path id="kity_path_113" fill="none" stroke="rgb(115, 161, 191)" stroke-width="1" d="M401.5,1273.5C421.5,1273.5,421.5,1351.5,441.5,1351.5"></path><path id="kity_path_115" fill="none" stroke="rgb(115, 161, 191)" stroke-width="1" d="M556.5,1351.5C576.5,1351.5,576.5,1351.5,596.5,1351.5"></path><path id="kity_path_117" fill="none" stroke="rgb(115, 161, 191)" stroke-width="1" d="M401.5,1273.5C421.5,1273.5,421.5,1403.5,441.5,1403.5"></path><path id="kity_path_119" fill="none" stroke="rgb(115, 161, 191)" stroke-width="1" d="M529.5,1403.5C549.5,1403.5,549.5,1403.5,569.5,1403.5"></path><path id="kity_path_121" fill="none" stroke="rgb(115, 161, 191)" stroke-width="1" d="M401.5,1273.5C421.5,1273.5,421.5,1455.5,441.5,1455.5"></path><path id="kity_path_123" fill="none" stroke="rgb(115, 161, 191)" stroke-width="1" d="M534.5,1455.5C554.5,1455.5,554.5,1455.5,574.5,1455.5"></path><path id="kity_path_125" fill="none" stroke="rgb(115, 161, 191)" stroke-width="1" d="M401.5,1273.5C421.5,1273.5,421.5,1507.5,441.5,1507.5"></path><path id="kity_path_127" fill="none" stroke="rgb(115, 161, 191)" stroke-width="1" d="M542.5,1507.5C562.5,1507.5,562.5,1507.5,582.5,1507.5"></path><path id="kity_path_129" fill="none" stroke="rgb(115, 161, 191)" stroke-width="1" d="M401.5,1273.5C421.5,1273.5,421.5,1559.5,441.5,1559.5"></path><path id="kity_path_131" fill="none" stroke="rgb(115, 161, 191)" stroke-width="1" d="M709.5,1559.5C729.5,1559.5,729.5,1559.5,749.5,1559.5"></path><path id="kity_path_133" fill="none" stroke="rgb(115, 161, 191)" stroke-width="1" d="M401.5,1273.5C421.5,1273.5,421.5,1611.5,441.5,1611.5"></path><path id="kity_path_135" fill="none" stroke="rgb(115, 161, 191)" stroke-width="1" d="M561.5,1611.5C581.5,1611.5,581.5,1611.5,601.5,1611.5"></path></g><g id="minder_node1"><path id="node_outline1" fill="rgb(115, 161, 191)" stroke="rgb(115, 161, 191)" d="M25.5,658.5h153a5,5,0,0,1,5,5v30a5,5,0,0,1,-5,5h-153a5,5,0,0,1,-5,-5v-30a5,5,0,0,1,5,-5z" stroke-width="3"></path><g id="node_text1" fill="white"><text id="kity_text_22" text-rendering="inherit" font-size="16" dy=".8em" y="670.5" x="44.5">AWS领导力原则</text></g></g><g id="kity_g_12"><path id="kity_path_13" fill="none" stroke="none" d="M44.5,678.5h0v0h0z"></path></g><g id="kity_g_14"><path id="kity_path_15" fill="none" stroke="none" d="M44.5,678.5h0v0h0z"></path><path id="kity_path_16" fill="none" stroke="none"></path></g><g id="minder_node2"><g id="node_expander6" style="cursor: pointer;"><path id="kity_path_311" fill="white" stroke="gray" d="M302.5,83.5A6,6,0,1,1,290.5,83.5A6,6,0,1,1,302.5,83.5"></path><path id="kity_path_312" fill="none" stroke="gray" d="M292,83.5L301,83.5"></path></g><path id="node_outline7" fill="rgb(238, 243, 246)" stroke="rgb(115, 161, 191)" d="M306.5,70.5h62a3,3,0,0,1,3,3v20a3,3,0,0,1,-3,3h-62a3,3,0,0,1,-3,-3v-20a3,3,0,0,1,3,-3z" stroke-width="1"></path><g id="node_text7" fill="black"><text id="kity_text_147" text-rendering="inherit" font-size="14" dy=".8em" y="76.5" x="323.5">前言</text></g></g><g id="minder_node3"><g id="node_expander1" style="cursor: pointer;" display="none"><path id="kity_path_296" fill="white" stroke="gray" d="M411.5,31.5A6,6,0,1,1,399.5,31.5A6,6,0,1,1,411.5,31.5"></path><path id="kity_path_297" fill="none" stroke="gray"></path></g><path id="node_outline2" fill="none" stroke="none" d="M416.5,20.5h387a5,5,0,0,1,5,5v12a5,5,0,0,1,-5,5h-387a5,5,0,0,1,-5,-5v-12a5,5,0,0,1,5,-5z"></path><g id="node_text2" fill="black"><text id="kity_text_137" text-rendering="inherit" font-size="12" dy=".8em" y="25.5" x="421.5">AWS领导力原则不是挂在墙上的标语，AWS的成员时刻在应用这些原则</text></g></g><g id="minder_node4"><g id="node_expander5" style="cursor: pointer;"><path id="kity_path_308" fill="white" stroke="gray" d="M411.5,135.5A6,6,0,1,1,399.5,135.5A6,6,0,1,1,411.5,135.5"></path><path id="kity_path_309" fill="none" stroke="gray" d="M401,135.5L410,135.5"></path></g><path id="node_outline6" fill="none" stroke="none" d="M416.5,124.5h58a5,5,0,0,1,5,5v12a5,5,0,0,1,-5,5h-58a5,5,0,0,1,-5,-5v-12a5,5,0,0,1,5,-5z"></path><g id="node_text6" fill="black"><text id="kity_text_145" text-rendering="inherit" font-size="12" dy=".8em" y="129.5" x="421.5">应用场景</text></g></g><g id="minder_node5"><g id="node_expander2" style="cursor: pointer;" display="none"><path id="kity_path_299" fill="white" stroke="gray" d="M519.5,83.5A6,6,0,1,1,507.5,83.5A6,6,0,1,1,519.5,83.5"></path><path id="kity_path_300" fill="none" stroke="gray"></path></g><path id="node_outline3" fill="none" stroke="none" d="M524.5,72.5h106a5,5,0,0,1,5,5v12a5,5,0,0,1,-5,5h-106a5,5,0,0,1,-5,-5v-12a5,5,0,0,1,5,-5z"></path><g id="node_text3" fill="black"><text id="kity_text_139" text-rendering="inherit" font-size="12" dy=".8em" y="77.5" x="529.5">讨论新项目想法时</text></g></g><g id="minder_node6"><g id="node_expander3" style="cursor: pointer;" display="none"><path id="kity_path_302" fill="white" stroke="gray" d="M519.5,135.5A6,6,0,1,1,507.5,135.5A6,6,0,1,1,519.5,135.5"></path><path id="kity_path_303" fill="none" stroke="gray"></path></g><path id="node_outline4" fill="none" stroke="none" d="M524.5,124.5h154a5,5,0,0,1,5,5v12a5,5,0,0,1,-5,5h-154a5,5,0,0,1,-5,-5v-12a5,5,0,0,1,5,-5z"></path><g id="node_text4" fill="black"><text id="kity_text_141" text-rendering="inherit" font-size="12" dy=".8em" y="129.5" x="529.5">决定客户的最佳解决方案时</text></g></g><g id="minder_node7"><g id="node_expander4" style="cursor: pointer;" display="none"><path id="kity_path_305" fill="white" stroke="gray" d="M519.5,187.5A6,6,0,1,1,507.5,187.5A6,6,0,1,1,519.5,187.5"></path><path id="kity_path_306" fill="none" stroke="gray"></path></g><path id="node_outline5" fill="none" stroke="none" d="M524.5,176.5h82a5,5,0,0,1,5,5v12a5,5,0,0,1,-5,5h-82a5,5,0,0,1,-5,-5v-12a5,5,0,0,1,5,-5z"></path><g id="node_text5" fill="black"><text id="kity_text_143" text-rendering="inherit" font-size="12" dy=".8em" y="181.5" x="529.5">面试候选人时</text></g></g><g id="minder_node8"><g id="node_expander24" style="cursor: pointer;"><path id="kity_path_365" fill="white" stroke="gray" d="M302.5,587.5A6,6,0,1,1,290.5,587.5A6,6,0,1,1,302.5,587.5"></path><path id="kity_path_366" fill="none" stroke="gray" d="M292,587.5L301,587.5"></path></g><path id="node_outline25" fill="rgb(238, 243, 246)" stroke="rgb(115, 161, 191)" d="M306.5,574.5h62a3,3,0,0,1,3,3v20a3,3,0,0,1,-3,3h-62a3,3,0,0,1,-3,-3v-20a3,3,0,0,1,3,-3z" stroke-width="1"></path><g id="node_text25" fill="black"><text id="kity_text_183" text-rendering="inherit" font-size="14" dy=".8em" y="580.5" x="323.5">整理</text></g></g><g id="minder_node9"><g id="node_expander11" style="cursor: pointer;"><path id="kity_path_326" fill="white" stroke="gray" d="M411.5,327.5A6,6,0,1,1,399.5,327.5A6,6,0,1,1,411.5,327.5"></path><path id="kity_path_327" fill="none" stroke="gray" d="M401,327.5L410,327.5"></path></g><path id="node_outline12" fill="none" stroke="none" d="M416.5,316.5h58a5,5,0,0,1,5,5v12a5,5,0,0,1,-5,5h-58a5,5,0,0,1,-5,-5v-12a5,5,0,0,1,5,-5z"></path><g id="node_text12" fill="black"><text id="kity_text_157" text-rendering="inherit" font-size="12" dy=".8em" y="321.5" x="421.5">业务层面</text></g></g><g id="minder_node10"><g id="node_expander7" style="cursor: pointer;" display="none"><path id="kity_path_314" fill="white" stroke="gray" d="M519.5,249.5A6,6,0,1,1,507.5,249.5A6,6,0,1,1,519.5,249.5"></path><path id="kity_path_315" fill="none" stroke="gray"></path></g><path id="node_outline8" fill="none" stroke="none" d="M524.5,238.5h166a5,5,0,0,1,5,5v12a5,5,0,0,1,-5,5h-166a5,5,0,0,1,-5,-5v-12a5,5,0,0,1,5,-5z"></path><g id="node_text8" fill="black"><text id="kity_text_149" text-rendering="inherit" font-size="12" dy=".8em" y="243.5" x="529.5">关心竞争对手，但更关心客户</text></g></g><g id="minder_node11"><g id="node_expander8" style="cursor: pointer;" display="none"><path id="kity_path_317" fill="white" stroke="gray" d="M519.5,301.5A6,6,0,1,1,507.5,301.5A6,6,0,1,1,519.5,301.5"></path><path id="kity_path_318" fill="none" stroke="gray"></path></g><path id="node_outline9" fill="none" stroke="none" d="M524.5,290.5h346a5,5,0,0,1,5,5v12a5,5,0,0,1,-5,5h-346a5,5,0,0,1,-5,-5v-12a5,5,0,0,1,5,-5z"></path><g id="node_text9" fill="black"><text id="kity_text_151" text-rendering="inherit" font-size="12" dy=".8em" y="295.5" x="529.5">坚持最高标准，不断提高标准，交付高质量的产品、服务和流程</text></g></g><g id="minder_node12"><g id="node_expander9" style="cursor: pointer;" display="none"><path id="kity_path_320" fill="white" stroke="gray" d="M519.5,353.5A6,6,0,1,1,507.5,353.5A6,6,0,1,1,519.5,353.5"></path><path id="kity_path_321" fill="none" stroke="gray"></path></g><path id="node_outline10" fill="none" stroke="none" d="M524.5,342.5h274a5,5,0,0,1,5,5v12a5,5,0,0,1,-5,5h-274a5,5,0,0,1,-5,-5v-12a5,5,0,0,1,5,-5z"></path><g id="node_text10" fill="black"><text id="kity_text_153" text-rendering="inherit" font-size="12" dy=".8em" y="347.5" x="529.5">节俭（高效），力争用更少的资源完成更多的事情</text></g></g><g id="minder_node13"><g id="node_expander10" style="cursor: pointer;" display="none"><path id="kity_path_323" fill="white" stroke="gray" d="M519.5,405.5A6,6,0,1,1,507.5,405.5A6,6,0,1,1,519.5,405.5"></path><path id="kity_path_324" fill="none" stroke="gray"></path></g><path id="node_outline11" fill="none" stroke="none" d="M524.5,394.5h231a5,5,0,0,1,5,5v12a5,5,0,0,1,-5,5h-231a5,5,0,0,1,-5,-5v-12a5,5,0,0,1,5,-5z"></path><g id="node_text11" fill="black"><text id="kity_text_155" text-rendering="inherit" font-size="12" dy=".8em" y="399.5" x="529.5">愿景宏伟蓝图，有大局观/远见，激发成果</text></g></g><g id="minder_node14"><g id="node_expander17" style="cursor: pointer;"><path id="kity_path_344" fill="white" stroke="gray" d="M411.5,561.5A6,6,0,1,1,399.5,561.5A6,6,0,1,1,411.5,561.5"></path><path id="kity_path_345" fill="none" stroke="gray" d="M401,561.5L410,561.5"></path></g><path id="node_outline18" fill="none" stroke="none" d="M416.5,550.5h58a5,5,0,0,1,5,5v12a5,5,0,0,1,-5,5h-58a5,5,0,0,1,-5,-5v-12a5,5,0,0,1,5,-5z"></path><g id="node_text18" fill="black"><text id="kity_text_169" text-rendering="inherit" font-size="12" dy=".8em" y="555.5" x="421.5">个人层面</text></g></g><g id="minder_node15"><g id="node_expander12" style="cursor: pointer;" display="none"><path id="kity_path_329" fill="white" stroke="gray" d="M519.5,457.5A6,6,0,1,1,507.5,457.5A6,6,0,1,1,519.5,457.5"></path><path id="kity_path_330" fill="none" stroke="gray"></path></g><path id="node_outline13" fill="none" stroke="none" d="M524.5,446.5h334a5,5,0,0,1,5,5v12a5,5,0,0,1,-5,5h-334a5,5,0,0,1,-5,-5v-12a5,5,0,0,1,5,-5z"></path><g id="node_text13" fill="black"><text id="kity_text_159" text-rendering="inherit" font-size="12" dy=".8em" y="451.5" x="529.5">具备好奇心，不断学习新知识，用行动探索未来丰富的可能性</text></g></g><g id="minder_node16"><g id="node_expander13" style="cursor: pointer;" display="none"><path id="kity_path_332" fill="white" stroke="gray" d="M519.5,509.5A6,6,0,1,1,507.5,509.5A6,6,0,1,1,519.5,509.5"></path><path id="kity_path_333" fill="none" stroke="gray"></path></g><path id="node_outline14" fill="none" stroke="none" d="M524.5,498.5h622a5,5,0,0,1,5,5v12a5,5,0,0,1,-5,5h-622a5,5,0,0,1,-5,-5v-12a5,5,0,0,1,5,-5z"></path><g id="node_text14" fill="black"><text id="kity_text_161" text-rendering="inherit" font-size="12" dy=".8em" y="503.5" x="529.5">具有创新的精神，明白“自古华山不是只有一条道”，发明、创新、简化，能够在不被理解的压力下坚持正确的想法</text></g></g><g id="minder_node17"><g id="node_expander14" style="cursor: pointer;" display="none"><path id="kity_path_335" fill="white" stroke="gray" d="M519.5,561.5A6,6,0,1,1,507.5,561.5A6,6,0,1,1,519.5,561.5"></path><path id="kity_path_336" fill="none" stroke="gray"></path></g><path id="node_outline15" fill="none" stroke="none" d="M524.5,550.5h838a5,5,0,0,1,5,5v12a5,5,0,0,1,-5,5h-838a5,5,0,0,1,-5,-5v-12a5,5,0,0,1,5,-5z"></path><g id="node_text15" fill="black"><text id="kity_text_163" text-rendering="inherit" font-size="12" dy=".8em" y="555.5" x="529.5">有义务不卑不亢地提出自己反对的观点（自己首先要有坚定的观点、信念），不会为了所谓的表面和谐而妥协，一旦讨论达成共识，做出决定，就按结论执行</text></g></g><g id="minder_node18"><g id="node_expander15" style="cursor: pointer;" display="none"><path id="kity_path_338" fill="white" stroke="gray" d="M519.5,613.5A6,6,0,1,1,507.5,613.5A6,6,0,1,1,519.5,613.5"></path><path id="kity_path_339" fill="none" stroke="gray"></path></g><path id="node_outline16" fill="none" stroke="none" d="M524.5,602.5h478a5,5,0,0,1,5,5v12a5,5,0,0,1,-5,5h-478a5,5,0,0,1,-5,-5v-12a5,5,0,0,1,5,-5z"></path><g id="node_text16" fill="black"><text id="kity_text_165" text-rendering="inherit" font-size="12" dy=".8em" y="607.5" x="529.5">具有卓越的商业判断力和敏锐的直觉，具有决断力，能够在深思熟虑前提下快速做出决定</text></g></g><g id="minder_node19"><g id="node_expander16" style="cursor: pointer;" display="none"><path id="kity_path_341" fill="white" stroke="gray" d="M519.5,665.5A6,6,0,1,1,507.5,665.5A6,6,0,1,1,519.5,665.5"></path><path id="kity_path_342" fill="none" stroke="gray"></path></g><path id="node_outline17" fill="none" stroke="none" d="M524.5,654.5h214a5,5,0,0,1,5,5v12a5,5,0,0,1,-5,5h-214a5,5,0,0,1,-5,-5v-12a5,5,0,0,1,5,-5z"></path><g id="node_text17" fill="black"><text id="kity_text_167" text-rendering="inherit" font-size="12" dy=".8em" y="659.5" x="529.5">当责意识，积极主动行事，为结果负责</text></g></g><g id="minder_node20"><g id="node_expander20" style="cursor: pointer;"><path id="kity_path_353" fill="white" stroke="gray" d="M411.5,743.5A6,6,0,1,1,399.5,743.5A6,6,0,1,1,411.5,743.5"></path><path id="kity_path_354" fill="none" stroke="gray" d="M401,743.5L410,743.5"></path></g><path id="node_outline21" fill="none" stroke="none" d="M416.5,732.5h58a5,5,0,0,1,5,5v12a5,5,0,0,1,-5,5h-58a5,5,0,0,1,-5,-5v-12a5,5,0,0,1,5,-5z"></path><g id="node_text21" fill="black"><text id="kity_text_175" text-rendering="inherit" font-size="12" dy=".8em" y="737.5" x="421.5">团队层面</text></g></g><g id="minder_node21"><g id="node_expander18" style="cursor: pointer;" display="none"><path id="kity_path_347" fill="white" stroke="gray" d="M519.5,717.5A6,6,0,1,1,507.5,717.5A6,6,0,1,1,519.5,717.5"></path><path id="kity_path_348" fill="none" stroke="gray"></path></g><path id="node_outline19" fill="none" stroke="none" d="M524.5,706.5h483a5,5,0,0,1,5,5v12a5,5,0,0,1,-5,5h-483a5,5,0,0,1,-5,-5v-12a5,5,0,0,1,5,-5z"></path><g id="node_text19" fill="black"><text id="kity_text_171" text-rendering="inherit" font-size="12" dy=".8em" y="711.5" x="529.5">赢得信任，尊重他人，认真倾听，坦诚说话，敢于承认错误，关心/确保团队处于最佳状态</text></g></g><g id="minder_node22"><g id="node_expander19" style="cursor: pointer;" display="none"><path id="kity_path_350" fill="white" stroke="gray" d="M519.5,769.5A6,6,0,1,1,507.5,769.5A6,6,0,1,1,519.5,769.5"></path><path id="kity_path_351" fill="none" stroke="gray"></path></g><path id="node_outline20" fill="none" stroke="none" d="M524.5,758.5h358a5,5,0,0,1,5,5v12a5,5,0,0,1,-5,5h-358a5,5,0,0,1,-5,-5v-12a5,5,0,0,1,5,-5z"></path><g id="node_text20" fill="black"><text id="kity_text_173" text-rendering="inherit" font-size="12" dy=".8em" y="763.5" x="529.5">洞察团队事物方方面面，深入团队了解细节，及时发现异常并修正</text></g></g><g id="minder_node23"><g id="node_expander23" style="cursor: pointer;"><path id="kity_path_362" fill="white" stroke="gray" d="M411.5,847.5A6,6,0,1,1,399.5,847.5A6,6,0,1,1,411.5,847.5"></path><path id="kity_path_363" fill="none" stroke="gray" d="M401,847.5L410,847.5"></path></g><path id="node_outline24" fill="none" stroke="none" d="M416.5,836.5h58a5,5,0,0,1,5,5v12a5,5,0,0,1,-5,5h-58a5,5,0,0,1,-5,-5v-12a5,5,0,0,1,5,-5z"></path><g id="node_text24" fill="black"><text id="kity_text_181" text-rendering="inherit" font-size="12" dy=".8em" y="841.5" x="421.5">组织层面</text></g></g><g id="minder_node24"><g id="node_expander21" style="cursor: pointer;" display="none"><path id="kity_path_356" fill="white" stroke="gray" d="M519.5,821.5A6,6,0,1,1,507.5,821.5A6,6,0,1,1,519.5,821.5"></path><path id="kity_path_357" fill="none" stroke="gray"></path></g><path id="node_outline22" fill="none" stroke="none" d="M524.5,810.5h358a5,5,0,0,1,5,5v12a5,5,0,0,1,-5,5h-358a5,5,0,0,1,-5,-5v-12a5,5,0,0,1,5,-5z"></path><g id="node_text22" fill="black"><text id="kity_text_177" text-rendering="inherit" font-size="12" dy=".8em" y="815.5" x="529.5">领导者对领导者的雇佣与提拔有更高的标准，重视指导他人的能力</text></g></g><g id="minder_node25"><g id="node_expander22" style="cursor: pointer;" display="none"><path id="kity_path_359" fill="white" stroke="gray" d="M519.5,873.5A6,6,0,1,1,507.5,873.5A6,6,0,1,1,519.5,873.5"></path><path id="kity_path_360" fill="none" stroke="gray"></path></g><path id="node_outline23" fill="none" stroke="none" d="M524.5,862.5h562a5,5,0,0,1,5,5v12a5,5,0,0,1,-5,5h-562a5,5,0,0,1,-5,-5v-12a5,5,0,0,1,5,-5z"></path><g id="node_text23" fill="black"><text id="kity_text_179" text-rendering="inherit" font-size="12" dy=".8em" y="867.5" x="529.5">具有主人公精神，从公司的角度而不是从所在团队的角度考虑问题，不因短期利益牺牲长期利益，不推卸</text></g></g><g id="minder_node26"><g id="node_expander53" style="cursor: pointer;"><path id="kity_path_452" fill="white" stroke="gray" d="M302.5,1273.5A6,6,0,1,1,290.5,1273.5A6,6,0,1,1,302.5,1273.5"></path><path id="kity_path_453" fill="none" stroke="gray" d="M292,1273.5L301,1273.5"></path></g><path id="node_outline54" fill="rgb(238, 243, 246)" stroke="rgb(115, 161, 191)" d="M306.5,1260.5h92a3,3,0,0,1,3,3v20a3,3,0,0,1,-3,3h-92a3,3,0,0,1,-3,-3v-20a3,3,0,0,1,3,-3z" stroke-width="1"></path><g id="node_text54" fill="black"><text id="kity_text_241" text-rendering="inherit" font-size="14" dy=".8em" y="1266.5" x="323.5">14个原则</text></g></g><g id="minder_node27"><g id="node_expander26" style="cursor: pointer;"><path id="kity_path_371" fill="white" stroke="gray" d="M441.5,935.5A6,6,0,1,1,429.5,935.5A6,6,0,1,1,441.5,935.5"></path><path id="kity_path_372" fill="none" stroke="gray" d="M431,935.5L440,935.5"></path></g><path id="node_outline27" fill="none" stroke="none" d="M446.5,924.5h140a5,5,0,0,1,5,5v12a5,5,0,0,1,-5,5h-140a5,5,0,0,1,-5,-5v-12a5,5,0,0,1,5,-5z"></path><g id="node_text27" fill="black"><text id="kity_text_187" text-rendering="inherit" font-size="12" dy=".8em" y="929.5" x="451.5">1. Customer Obsession</text></g></g><g id="minder_node28"><g id="node_expander25" style="cursor: pointer;" display="none"><path id="kity_path_368" fill="white" stroke="gray" d="M631.5,935.5A6,6,0,1,1,619.5,935.5A6,6,0,1,1,631.5,935.5"></path><path id="kity_path_369" fill="none" stroke="gray"></path></g><path id="node_outline26" fill="none" stroke="none" d="M636.5,924.5h1068a5,5,0,0,1,5,5v12a5,5,0,0,1,-5,5h-1068a5,5,0,0,1,-5,-5v-12a5,5,0,0,1,5,-5z"></path><g id="node_text26" fill="black"><text id="kity_text_185" text-rendering="inherit" font-size="12" dy=".8em" y="929.5" x="641.5">Leaders start with the customer and work backwards. They work vigorously to earn and keep customer trust. Although leaders pay attention to competitors, they obsess over customers.</text></g></g><g id="minder_node29"><g id="node_expander28" style="cursor: pointer;"><path id="kity_path_377" fill="white" stroke="gray" d="M441.5,987.5A6,6,0,1,1,429.5,987.5A6,6,0,1,1,441.5,987.5"></path><path id="kity_path_378" fill="none" stroke="gray" d="M431,987.5L440,987.5"></path></g><path id="node_outline29" fill="none" stroke="none" d="M446.5,976.5h85a5,5,0,0,1,5,5v12a5,5,0,0,1,-5,5h-85a5,5,0,0,1,-5,-5v-12a5,5,0,0,1,5,-5z"></path><g id="node_text29" fill="black"><text id="kity_text_191" text-rendering="inherit" font-size="12" dy=".8em" y="981.5" x="451.5">2. Ownership</text></g></g><g id="minder_node30"><g id="node_expander27" style="cursor: pointer;" display="none"><path id="kity_path_374" fill="white" stroke="gray" d="M576.5,987.5A6,6,0,1,1,564.5,987.5A6,6,0,1,1,576.5,987.5"></path><path id="kity_path_375" fill="none" stroke="gray"></path></g><path id="node_outline28" fill="none" stroke="none" d="M581.5,976.5h1179a5,5,0,0,1,5,5v12a5,5,0,0,1,-5,5h-1179a5,5,0,0,1,-5,-5v-12a5,5,0,0,1,5,-5z"></path><g id="node_text28" fill="black"><text id="kity_text_189" text-rendering="inherit" font-size="12" dy=".8em" y="981.5" x="586.5">Leaders are owners. They think long term and don't sacrifice long-term value for short-term results. They act on behalf of the entire company, beyond just their own team. They never say "that's not my job."</text></g></g><g id="minder_node31"><g id="node_expander30" style="cursor: pointer;"><path id="kity_path_383" fill="white" stroke="gray" d="M441.5,1039.5A6,6,0,1,1,429.5,1039.5A6,6,0,1,1,441.5,1039.5"></path><path id="kity_path_384" fill="none" stroke="gray" d="M431,1039.5L440,1039.5"></path></g><path id="node_outline31" fill="none" stroke="none" d="M446.5,1028.5h131a5,5,0,0,1,5,5v12a5,5,0,0,1,-5,5h-131a5,5,0,0,1,-5,-5v-12a5,5,0,0,1,5,-5z"></path><g id="node_text31" fill="black"><text id="kity_text_195" text-rendering="inherit" font-size="12" dy=".8em" y="1033.5" x="451.5">3. Invent and Simplify</text></g></g><g id="minder_node32"><g id="node_expander29" style="cursor: pointer;" display="none"><path id="kity_path_380" fill="white" stroke="gray" d="M622.5,1039.5A6,6,0,1,1,610.5,1039.5A6,6,0,1,1,622.5,1039.5"></path><path id="kity_path_381" fill="none" stroke="gray"></path></g><path id="node_outline30" fill="none" stroke="none" d="M627.5,1028.5h1734a5,5,0,0,1,5,5v12a5,5,0,0,1,-5,5h-1734a5,5,0,0,1,-5,-5v-12a5,5,0,0,1,5,-5z"></path><g id="node_text30" fill="black"><text id="kity_text_193" text-rendering="inherit" font-size="12" dy=".8em" y="1033.5" x="632.5">Leaders expect and require innovation and invention from their teams and always find ways to simplify. They are externally aware, look for new ideas from everywhere, and are not limited by "not invented here." As we do new things, we accept that we may be misunderstood for long periods of time.</text></g></g><g id="minder_node33"><g id="node_expander32" style="cursor: pointer;"><path id="kity_path_389" fill="white" stroke="gray" d="M441.5,1091.5A6,6,0,1,1,429.5,1091.5A6,6,0,1,1,441.5,1091.5"></path><path id="kity_path_390" fill="none" stroke="gray" d="M431,1091.5L440,1091.5"></path></g><path id="node_outline33" fill="none" stroke="none" d="M446.5,1080.5h111a5,5,0,0,1,5,5v12a5,5,0,0,1,-5,5h-111a5,5,0,0,1,-5,-5v-12a5,5,0,0,1,5,-5z"></path><g id="node_text33" fill="black"><text id="kity_text_199" text-rendering="inherit" font-size="12" dy=".8em" y="1085.5" x="451.5">4. Are Right, A Lot</text></g></g><g id="minder_node34"><g id="node_expander31" style="cursor: pointer;" display="none"><path id="kity_path_386" fill="white" stroke="gray" d="M602.5,1091.5A6,6,0,1,1,590.5,1091.5A6,6,0,1,1,602.5,1091.5"></path><path id="kity_path_387" fill="none" stroke="gray"></path></g><path id="node_outline32" fill="none" stroke="none" d="M607.5,1080.5h848a5,5,0,0,1,5,5v12a5,5,0,0,1,-5,5h-848a5,5,0,0,1,-5,-5v-12a5,5,0,0,1,5,-5z"></path><g id="node_text32" fill="black"><text id="kity_text_197" text-rendering="inherit" font-size="12" dy=".8em" y="1085.5" x="612.5">Leaders are right a lot. They have strong business judgment and good instincts. They seek diverse perspectives and work to disconfirm their beliefs.</text></g></g><g id="minder_node35"><g id="node_expander34" style="cursor: pointer;"><path id="kity_path_395" fill="white" stroke="gray" d="M441.5,1143.5A6,6,0,1,1,429.5,1143.5A6,6,0,1,1,441.5,1143.5"></path><path id="kity_path_396" fill="none" stroke="gray" d="M431,1143.5L440,1143.5"></path></g><path id="node_outline35" fill="none" stroke="none" d="M446.5,1132.5h146a5,5,0,0,1,5,5v12a5,5,0,0,1,-5,5h-146a5,5,0,0,1,-5,-5v-12a5,5,0,0,1,5,-5z"></path><g id="node_text35" fill="black"><text id="kity_text_203" text-rendering="inherit" font-size="12" dy=".8em" y="1137.5" x="451.5">5. Learn and Be Curious</text></g></g><g id="minder_node36"><g id="node_expander33" style="cursor: pointer;" display="none"><path id="kity_path_392" fill="white" stroke="gray" d="M637.5,1143.5A6,6,0,1,1,625.5,1143.5A6,6,0,1,1,637.5,1143.5"></path><path id="kity_path_393" fill="none" stroke="gray"></path></g><path id="node_outline34" fill="none" stroke="none" d="M642.5,1132.5h810a5,5,0,0,1,5,5v12a5,5,0,0,1,-5,5h-810a5,5,0,0,1,-5,-5v-12a5,5,0,0,1,5,-5z"></path><g id="node_text34" fill="black"><text id="kity_text_201" text-rendering="inherit" font-size="12" dy=".8em" y="1137.5" x="647.5">Leaders are never done learning and always seek to improve themselves. They are curious about new possibilities and act to explore them.</text></g></g><g id="minder_node37"><g id="node_expander36" style="cursor: pointer;"><path id="kity_path_401" fill="white" stroke="gray" d="M441.5,1195.5A6,6,0,1,1,429.5,1195.5A6,6,0,1,1,441.5,1195.5"></path><path id="kity_path_402" fill="none" stroke="gray" d="M431,1195.5L440,1195.5"></path></g><path id="node_outline37" fill="none" stroke="none" d="M446.5,1184.5h173a5,5,0,0,1,5,5v12a5,5,0,0,1,-5,5h-173a5,5,0,0,1,-5,-5v-12a5,5,0,0,1,5,-5z"></path><g id="node_text37" fill="black"><text id="kity_text_207" text-rendering="inherit" font-size="12" dy=".8em" y="1189.5" x="451.5">6. Hire and Develop the Best</text></g></g><g id="minder_node38"><g id="node_expander35" style="cursor: pointer;" display="none"><path id="kity_path_398" fill="white" stroke="gray" d="M664.5,1195.5A6,6,0,1,1,652.5,1195.5A6,6,0,1,1,664.5,1195.5"></path><path id="kity_path_399" fill="none" stroke="gray"></path></g><path id="node_outline36" fill="none" stroke="none" d="M669.5,1184.5h1863a5,5,0,0,1,5,5v12a5,5,0,0,1,-5,5h-1863a5,5,0,0,1,-5,-5v-12a5,5,0,0,1,5,-5z"></path><g id="node_text36" fill="black"><text id="kity_text_205" text-rendering="inherit" font-size="12" dy=".8em" y="1189.5" x="674.5">Leaders raise the performance bar with every hire and promotion. They recognize exceptional talent, and willingly move them throughout the organization. Leaders develop leaders and take seriously their role in coaching others. We work on behalf of our people to invent mechanisms for development like Career Choice.</text></g></g><g id="minder_node39"><g id="node_expander38" style="cursor: pointer;"><path id="kity_path_407" fill="white" stroke="gray" d="M441.5,1247.5A6,6,0,1,1,429.5,1247.5A6,6,0,1,1,441.5,1247.5"></path><path id="kity_path_408" fill="none" stroke="gray" d="M431,1247.5L440,1247.5"></path></g><path id="node_outline39" fill="none" stroke="none" d="M446.5,1236.5h196a5,5,0,0,1,5,5v12a5,5,0,0,1,-5,5h-196a5,5,0,0,1,-5,-5v-12a5,5,0,0,1,5,-5z"></path><g id="node_text39" fill="black"><text id="kity_text_211" text-rendering="inherit" font-size="12" dy=".8em" y="1241.5" x="451.5">7. Insist on the Highest Standards</text></g></g><g id="minder_node40"><g id="node_expander37" style="cursor: pointer;" display="none"><path id="kity_path_404" fill="white" stroke="gray" d="M687.5,1247.5A6,6,0,1,1,675.5,1247.5A6,6,0,1,1,687.5,1247.5"></path><path id="kity_path_405" fill="none" stroke="gray"></path></g><path id="node_outline38" fill="none" stroke="none" d="M692.5,1236.5h1913a5,5,0,0,1,5,5v12a5,5,0,0,1,-5,5h-1913a5,5,0,0,1,-5,-5v-12a5,5,0,0,1,5,-5z"></path><g id="node_text38" fill="black"><text id="kity_text_209" text-rendering="inherit" font-size="12" dy=".8em" y="1241.5" x="697.5">Leaders have relentlessly high standards—many people may think these standards are unreasonably high. Leaders are continually raising the bar and driving their teams to deliver high-quality products, services, and processes. Leaders ensure that defects do not get sent down the line and that problems are fixed so they stay fixed.</text></g></g><g id="minder_node41"><g id="node_expander40" style="cursor: pointer;"><path id="kity_path_413" fill="white" stroke="gray" d="M441.5,1299.5A6,6,0,1,1,429.5,1299.5A6,6,0,1,1,441.5,1299.5"></path><path id="kity_path_414" fill="none" stroke="gray" d="M431,1299.5L440,1299.5"></path></g><path id="node_outline41" fill="none" stroke="none" d="M446.5,1288.5h72a5,5,0,0,1,5,5v12a5,5,0,0,1,-5,5h-72a5,5,0,0,1,-5,-5v-12a5,5,0,0,1,5,-5z"></path><g id="node_text41" fill="black"><text id="kity_text_215" text-rendering="inherit" font-size="12" dy=".8em" y="1293.5" x="451.5">8. Think Big</text></g></g><g id="minder_node42"><g id="node_expander39" style="cursor: pointer;" display="none"><path id="kity_path_410" fill="white" stroke="gray" d="M563.5,1299.5A6,6,0,1,1,551.5,1299.5A6,6,0,1,1,563.5,1299.5"></path><path id="kity_path_411" fill="none" stroke="gray"></path></g><path id="node_outline40" fill="none" stroke="none" d="M568.5,1288.5h1081a5,5,0,0,1,5,5v12a5,5,0,0,1,-5,5h-1081a5,5,0,0,1,-5,-5v-12a5,5,0,0,1,5,-5z"></path><g id="node_text40" fill="black"><text id="kity_text_213" text-rendering="inherit" font-size="12" dy=".8em" y="1293.5" x="573.5">Thinking small is a self-fulfilling prophecy. Leaders create and communicate a bold direction that inspires results. They think differently and look around corners for ways to serve customers.</text></g></g><g id="minder_node43"><g id="node_expander42" style="cursor: pointer;"><path id="kity_path_419" fill="white" stroke="gray" d="M441.5,1351.5A6,6,0,1,1,429.5,1351.5A6,6,0,1,1,441.5,1351.5"></path><path id="kity_path_420" fill="none" stroke="gray" d="M431,1351.5L440,1351.5"></path></g><path id="node_outline43" fill="none" stroke="none" d="M446.5,1340.5h105a5,5,0,0,1,5,5v12a5,5,0,0,1,-5,5h-105a5,5,0,0,1,-5,-5v-12a5,5,0,0,1,5,-5z"></path><g id="node_text43" fill="black"><text id="kity_text_219" text-rendering="inherit" font-size="12" dy=".8em" y="1345.5" x="451.5">9. Bias for Action</text></g></g><g id="minder_node44"><g id="node_expander41" style="cursor: pointer;" display="none"><path id="kity_path_416" fill="white" stroke="gray" d="M596.5,1351.5A6,6,0,1,1,584.5,1351.5A6,6,0,1,1,596.5,1351.5"></path><path id="kity_path_417" fill="none" stroke="gray"></path></g><path id="node_outline42" fill="none" stroke="none" d="M601.5,1340.5h789a5,5,0,0,1,5,5v12a5,5,0,0,1,-5,5h-789a5,5,0,0,1,-5,-5v-12a5,5,0,0,1,5,-5z"></path><g id="node_text42" fill="black"><text id="kity_text_217" text-rendering="inherit" font-size="12" dy=".8em" y="1345.5" x="606.5">Speed matters in business. Many decisions and actions are reversible and do not need extensive study. We value calculated risk taking.</text></g></g><g id="minder_node45"><g id="node_expander44" style="cursor: pointer;"><path id="kity_path_425" fill="white" stroke="gray" d="M441.5,1403.5A6,6,0,1,1,429.5,1403.5A6,6,0,1,1,441.5,1403.5"></path><path id="kity_path_426" fill="none" stroke="gray" d="M431,1403.5L440,1403.5"></path></g><path id="node_outline45" fill="none" stroke="none" d="M446.5,1392.5h78a5,5,0,0,1,5,5v12a5,5,0,0,1,-5,5h-78a5,5,0,0,1,-5,-5v-12a5,5,0,0,1,5,-5z"></path><g id="node_text45" fill="black"><text id="kity_text_223" text-rendering="inherit" font-size="12" dy=".8em" y="1397.5" x="451.5">10. Frugality</text></g></g><g id="minder_node46"><g id="node_expander43" style="cursor: pointer;" display="none"><path id="kity_path_422" fill="white" stroke="gray" d="M569.5,1403.5A6,6,0,1,1,557.5,1403.5A6,6,0,1,1,569.5,1403.5"></path><path id="kity_path_423" fill="none" stroke="gray"></path></g><path id="node_outline44" fill="none" stroke="none" d="M574.5,1392.5h998a5,5,0,0,1,5,5v12a5,5,0,0,1,-5,5h-998a5,5,0,0,1,-5,-5v-12a5,5,0,0,1,5,-5z"></path><g id="node_text44" fill="black"><text id="kity_text_221" text-rendering="inherit" font-size="12" dy=".8em" y="1397.5" x="579.5">Accomplish more with less. Constraints breed resourcefulness, self-sufficiency and invention. There are no extra points for growing headcount, budget size, or fixed expense.</text></g></g><g id="minder_node47"><g id="node_expander46" style="cursor: pointer;"><path id="kity_path_431" fill="white" stroke="gray" d="M441.5,1455.5A6,6,0,1,1,429.5,1455.5A6,6,0,1,1,441.5,1455.5"></path><path id="kity_path_432" fill="none" stroke="gray" d="M431,1455.5L440,1455.5"></path></g><path id="node_outline47" fill="none" stroke="none" d="M446.5,1444.5h83a5,5,0,0,1,5,5v12a5,5,0,0,1,-5,5h-83a5,5,0,0,1,-5,-5v-12a5,5,0,0,1,5,-5z"></path><g id="node_text47" fill="black"><text id="kity_text_227" text-rendering="inherit" font-size="12" dy=".8em" y="1449.5" x="451.5">11. Earn Trust</text></g></g><g id="minder_node48"><g id="node_expander45" style="cursor: pointer;" display="none"><path id="kity_path_428" fill="white" stroke="gray" d="M574.5,1455.5A6,6,0,1,1,562.5,1455.5A6,6,0,1,1,574.5,1455.5"></path><path id="kity_path_429" fill="none" stroke="gray"></path></g><path id="node_outline46" fill="none" stroke="none" d="M579.5,1444.5h1659a5,5,0,0,1,5,5v12a5,5,0,0,1,-5,5h-1659a5,5,0,0,1,-5,-5v-12a5,5,0,0,1,5,-5z"></path><g id="node_text46" fill="black"><text id="kity_text_225" text-rendering="inherit" font-size="12" dy=".8em" y="1449.5" x="584.5">Leaders listen attentively, speak candidly, and treat others respectfully. They are vocally self-critical, even when doing so is awkward or embarrassing. Leaders do not believe their or their team’s body odor smells of perfume. They benchmark themselves and their teams against the best.</text></g></g><g id="minder_node49"><g id="node_expander48" style="cursor: pointer;"><path id="kity_path_437" fill="white" stroke="gray" d="M441.5,1507.5A6,6,0,1,1,429.5,1507.5A6,6,0,1,1,441.5,1507.5"></path><path id="kity_path_438" fill="none" stroke="gray" d="M431,1507.5L440,1507.5"></path></g><path id="node_outline49" fill="none" stroke="none" d="M446.5,1496.5h91a5,5,0,0,1,5,5v12a5,5,0,0,1,-5,5h-91a5,5,0,0,1,-5,-5v-12a5,5,0,0,1,5,-5z"></path><g id="node_text49" fill="black"><text id="kity_text_231" text-rendering="inherit" font-size="12" dy=".8em" y="1501.5" x="451.5">12. Dive Deep</text></g></g><g id="minder_node50"><g id="node_expander47" style="cursor: pointer;" display="none"><path id="kity_path_434" fill="white" stroke="gray" d="M582.5,1507.5A6,6,0,1,1,570.5,1507.5A6,6,0,1,1,582.5,1507.5"></path><path id="kity_path_435" fill="none" stroke="gray"></path></g><path id="node_outline48" fill="none" stroke="none" d="M587.5,1496.5h905a5,5,0,0,1,5,5v12a5,5,0,0,1,-5,5h-905a5,5,0,0,1,-5,-5v-12a5,5,0,0,1,5,-5z"></path><g id="node_text48" fill="black"><text id="kity_text_229" text-rendering="inherit" font-size="12" dy=".8em" y="1501.5" x="592.5">Leaders operate at all levels, stay connected to the details, audit frequently, and are skeptical when metrics and anecdote differ. No task is beneath them.</text></g></g><g id="minder_node51"><g id="node_expander50" style="cursor: pointer;"><path id="kity_path_443" fill="white" stroke="gray" d="M441.5,1559.5A6,6,0,1,1,429.5,1559.5A6,6,0,1,1,441.5,1559.5"></path><path id="kity_path_444" fill="none" stroke="gray" d="M431,1559.5L440,1559.5"></path></g><path id="node_outline51" fill="none" stroke="none" d="M446.5,1548.5h258a5,5,0,0,1,5,5v12a5,5,0,0,1,-5,5h-258a5,5,0,0,1,-5,-5v-12a5,5,0,0,1,5,-5z"></path><g id="node_text51" fill="black"><text id="kity_text_235" text-rendering="inherit" font-size="12" dy=".8em" y="1553.5" x="451.5">13. Have Backbone; Disagree and Commit</text></g></g><g id="minder_node52"><g id="node_expander49" style="cursor: pointer;" display="none"><path id="kity_path_440" fill="white" stroke="gray" d="M749.5,1559.5A6,6,0,1,1,737.5,1559.5A6,6,0,1,1,749.5,1559.5"></path><path id="kity_path_441" fill="none" stroke="gray"></path></g><path id="node_outline50" fill="none" stroke="none" d="M754.5,1548.5h1655a5,5,0,0,1,5,5v12a5,5,0,0,1,-5,5h-1655a5,5,0,0,1,-5,-5v-12a5,5,0,0,1,5,-5z"></path><g id="node_text50" fill="black"><text id="kity_text_233" text-rendering="inherit" font-size="12" dy=".8em" y="1553.5" x="759.5">Leaders are obligated to respectfully challenge decisions when they disagree, even when doing so is uncomfortable or exhausting. Leaders have conviction and are tenacious. They do not compromise for the sake of social cohesion. Once a decision is determined, they commit wholly.</text></g></g><g id="minder_node53"><g id="node_expander52" style="cursor: pointer;"><path id="kity_path_449" fill="white" stroke="gray" d="M441.5,1611.5A6,6,0,1,1,429.5,1611.5A6,6,0,1,1,441.5,1611.5"></path><path id="kity_path_450" fill="none" stroke="gray" d="M431,1611.5L440,1611.5"></path></g><path id="node_outline53" fill="none" stroke="none" d="M446.5,1600.5h110a5,5,0,0,1,5,5v12a5,5,0,0,1,-5,5h-110a5,5,0,0,1,-5,-5v-12a5,5,0,0,1,5,-5z"></path><g id="node_text53" fill="black"><text id="kity_text_239" text-rendering="inherit" font-size="12" dy=".8em" y="1605.5" x="451.5">14. Deliver Results</text></g></g><g id="minder_node54"><g id="node_expander51" style="cursor: pointer;" display="none"><path id="kity_path_446" fill="white" stroke="gray" d="M601.5,1611.5A6,6,0,1,1,589.5,1611.5A6,6,0,1,1,601.5,1611.5"></path><path id="kity_path_447" fill="none" stroke="gray"></path></g><path id="node_outline52" fill="none" stroke="none" d="M606.5,1600.5h993a5,5,0,0,1,5,5v12a5,5,0,0,1,-5,5h-993a5,5,0,0,1,-5,-5v-12a5,5,0,0,1,5,-5z"></path><g id="node_text52" fill="black"><text id="kity_text_237" text-rendering="inherit" font-size="12" dy=".8em" y="1605.5" x="611.5">Leaders focus on the key inputs for their business and deliver them with the right quality and in a timely fashion. Despite setbacks, they rise to the occasion and never settle.</text></g></g></g></g></svg>